<svg xmlns="http://www.w3.org/2000/svg" width="1512" height="439" fill="none" viewBox="0 0 1512 439">
	<path fill="#5D9086" d="M1206.99 93.787H1183V52.788h23.99v40.999Z" />
	<path fill="#5D9086" d="M1206.99 127.575H1183V86.577h23.99v40.998Z" />
	<path fill="#5D9086" d="M1206.99 161.363H1183v-40.998h23.99v40.998Zm46.81 38.804h-4.93v-61.175h4.93v61.175Zm0 67.577h-4.93v-61.175h4.93v61.175Zm0 67.577h-4.93v-61.176h4.93v61.176Zm0 67.577h-4.93v-61.176h4.93v61.176Zm0 67.576h-4.93v-61.175h4.93v61.175Zm39.54-230.887h-4.93v-61.175h4.93v61.175Zm0 67.577h-4.93v-61.176h4.93v61.176Zm0 67.577h-4.93v-61.176h4.93v61.176Zm0 67.576h-4.93v-61.175h4.93v61.175Zm-96.01-219.624h-4.93v-61.176h4.93v61.176Zm0 67.577h-4.93v-61.176h4.93v61.176Zm0 67.576h-4.93v-61.175h4.93v61.175Zm0 67.577h-4.93v-61.175h4.93v61.175Zm0 67.577h-4.93v-61.175h4.93V493Zm66.14-433.002h-23.99V19h23.99v40.998Z" />
	<path fill="#5D9086" d="M1263.47 93.787h-23.99V52.788h23.99v40.999Z" />
	<path fill="#5D9086" d="M1263.47 127.575h-23.99V86.577h23.99v40.998ZM1303 99.418h-23.99V58.42H1303v40.998Z" />
	<path fill="#5D9086" d="M1303 133.206h-23.99V92.208H1303v40.998Z" />
	<path fill="#5D9086" d="M1303 166.995h-23.99v-40.998H1303v40.998Z" />
	<path fill="#AFF2E2" d="M1357.16 188.918c0 2.125-.5 4.293-1.49 6.503s-2.34 4.07-4.03 5.579l-3.64-2.008a14.818 14.818 0 0 0 2.15-4.75c.43-1.679.64-3.422.64-5.229v-5.706h6.37v5.611Zm52.56 6.184h-29.05v-4.813h29.05v4.813Zm38.98 0h-29.06v-4.813h29.06v4.813Zm38.97 0h-29.05v-4.813h29.05v4.813Zm38.98 0h-29.06v-4.813h29.06v4.813Zm38.97 0h-29.06v-4.813h29.06v4.813Zm25.38-6.184c0 2.125-.5 4.293-1.49 6.503s-2.33 4.07-4.02 5.579l-3.65-2.008a14.844 14.844 0 0 0 2.16-4.75c.42-1.679.63-3.422.63-5.229v-5.706h6.37v5.611Zm-178.51-59.163h5.29l19.27 50.401h-5.29l-19.27-50.401Zm26.24 23.192c0-2.532.19-4.914.58-7.146.4-2.231.94-4.304 1.61-6.216.67-1.895 1.43-3.631 2.3-5.207.88-1.576 1.8-2.976 2.77-4.198.95-1.222 1.91-2.267 2.88-3.134.96-.868 1.89-1.55 2.77-2.046l1.03 3.241c-.56.425-1.14.939-1.72 1.541-.56.602-1.11 1.275-1.66 2.019-.81 1.151-1.59 2.506-2.32 4.064a28.82 28.82 0 0 0-1.85 5.075c-.48 1.664-.85 3.497-1.11 5.499-.27 2.001-.4 4.153-.4 6.455v.372c0 2.214.13 4.286.37 6.217.25 1.93.58 3.71 1.01 5.339.45 1.648.98 3.171 1.58 4.57.6 1.417 1.22 2.683 1.87 3.799a23.859 23.859 0 0 0 2.06 2.816c.73.832 1.45 1.541 2.17 2.125l-1.03 3.002c-.88-.496-1.81-1.178-2.8-2.046-.97-.85-1.93-1.895-2.88-3.134-.97-1.222-1.89-2.622-2.77-4.198-.86-1.558-1.62-3.294-2.27-5.207-.67-1.895-1.21-3.958-1.61-6.19-.39-2.231-.58-4.613-.58-7.146v-.266Z" />
	<path fill="#E6FF55" d="M1466.68 164.822c0-1.253.38-2.327 1.14-3.219.76-.893 1.91-1.339 3.45-1.339 1.52 0 2.68.446 3.46 1.339.8.871 1.2 1.944 1.2 3.219 0 1.254-.4 2.306-1.2 3.156-.8.851-1.96 1.276-3.46 1.276-1.52 0-2.67-.425-3.45-1.276-.76-.871-1.14-1.923-1.14-3.156Z" />
	<path fill="#AFF2E2" d="M1499.38 153.213c0 2.533-.21 4.915-.61 7.146-.39 2.232-.92 4.295-1.59 6.19a31.392 31.392 0 0 1-2.32 5.207c-.86 1.576-1.77 2.976-2.72 4.198-.97 1.239-1.94 2.284-2.93 3.134-.97.868-1.89 1.55-2.77 2.046l-1.03-3.002c.74-.549 1.49-1.257 2.24-2.125.76-.868 1.48-1.869 2.17-3.002.65-1.151 1.27-2.453 1.87-3.905.62-1.435 1.12-3.011 1.51-4.729.4-1.594.71-3.312.92-5.154.23-1.86.35-3.843.35-5.951v-.372c0-2.391-.15-4.56-.45-6.508-.29-1.949-.6-3.604-.95-4.968-.51-1.948-1.13-3.693-1.85-5.234-.72-1.558-1.46-2.913-2.22-4.064a17.15 17.15 0 0 0-1.8-2.365 16.02 16.02 0 0 0-1.79-1.753l1.03-3.002c.88.496 1.81 1.178 2.8 2.046.98.867 1.95 1.912 2.9 3.134a31.925 31.925 0 0 1 2.77 4.198c.87 1.541 1.62 3.276 2.27 5.207.64 1.859 1.16 3.878 1.56 6.057.43 2.16.64 4.596.64 7.305v.266Zm7.23 26.943h-5.26l19.26-50.401h5.23l-19.23 50.401Z" />
	<path fill="#E6FF55" d="m1460.78 150.663 8.45-20.695h3.35l8.42 20.695h-4.51l-5.23-12.911-.39-1.807-.4 1.807-5.15 12.911h-4.54Z" />
	<path fill="#5F82FF" d="M29.935 211.86c0 1.32-.22 2.59-.66 3.81a10.42 10.42 0 0 1-1.858 3.24c-.8.94-1.75 1.69-2.848 2.25-1.1.56-2.319.84-3.658.84-.939 0-1.818-.09-2.638-.27-.8-.18-1.578-.45-2.338-.81-.78-.36-1.549-.8-2.308-1.32a31.75 31.75 0 0 1-2.309-1.8 21.048 21.048 0 0 0-1.918-1.41c-.6-.42-1.2-.75-1.799-.99-.42-.18-.849-.31-1.289-.39a7.04 7.04 0 0 0-1.319-.12c-.7 0-1.359.15-1.978.45-.6.28-1.12.66-1.56 1.14-.439.5-.788 1.09-1.048 1.77-.26.66-.39 1.37-.39 2.13L-4 219.87c0-1.32.22-2.58.66-3.78a9.73 9.73 0 0 1 1.858-3.15c.78-.9 1.719-1.61 2.818-2.13 1.1-.54 2.318-.81 3.657-.81.92 0 1.789.1 2.608.3.84.18 1.65.45 2.429.81.779.36 1.538.8 2.278 1.32.76.52 1.529 1.1 2.308 1.74.52.44 1.02.84 1.499 1.2.48.34.95.63 1.409.87.54.3 1.09.53 1.649.69.56.14 1.139.2 1.738.18.7 0 1.35-.16 1.949-.48.62-.32 1.159-.75 1.619-1.29.44-.52.79-1.13 1.049-1.83.26-.7.39-1.43.39-2.19l4.017.54Zm36.872 0c0 1.32-.22 2.59-.66 3.81a10.4 10.4 0 0 1-1.858 3.24c-.8.94-1.749 1.69-2.848 2.25-1.1.56-2.318.84-3.657.84-.94 0-1.819-.09-2.638-.27-.8-.18-1.58-.45-2.339-.81a15.91 15.91 0 0 1-2.308-1.32c-.74-.52-1.509-1.12-2.308-1.8-.66-.54-1.3-1.01-1.919-1.41-.6-.42-1.199-.75-1.798-.99-.42-.18-.85-.31-1.29-.39a7.022 7.022 0 0 0-1.318-.12c-.7 0-1.36.15-1.979.45-.6.28-1.119.66-1.559 1.14-.44.5-.79 1.09-1.049 1.77-.26.66-.39 1.37-.39 2.13l-4.017-.51c0-1.32.22-2.58.66-3.78a9.73 9.73 0 0 1 1.859-3.15 8.48 8.48 0 0 1 2.817-2.13c1.1-.54 2.319-.81 3.658-.81.919 0 1.788.1 2.608.3.84.18 1.649.45 2.428.81.78.36 1.539.8 2.278 1.32.76.52 1.53 1.1 2.309 1.74.52.44 1.019.84 1.498 1.2.48.34.95.63 1.41.87.539.3 1.089.53 1.648.69.56.14 1.14.2 1.739.18.7 0 1.349-.16 1.948-.48a5.31 5.31 0 0 0 1.62-1.29c.439-.52.789-1.13 1.048-1.83.26-.7.39-1.43.39-2.19l4.017.54Zm36.872 0c0 1.32-.219 2.59-.659 3.81-.44 1.22-1.059 2.3-1.859 3.24a9.157 9.157 0 0 1-2.848 2.25c-1.099.56-2.318.84-3.657.84-.94 0-1.819-.09-2.638-.27-.8-.18-1.579-.45-2.338-.81-.78-.36-1.549-.8-2.308-1.32a31.75 31.75 0 0 1-2.309-1.8c-.66-.54-1.299-1.01-1.918-1.41-.6-.42-1.2-.75-1.799-.99-.42-.18-.85-.31-1.289-.39a7.04 7.04 0 0 0-1.319-.12c-.7 0-1.359.15-1.978.45-.6.28-1.12.66-1.56 1.14-.439.5-.789 1.09-1.049 1.77-.26.66-.39 1.37-.39 2.13l-4.016-.51c0-1.32.22-2.58.66-3.78a9.73 9.73 0 0 1 1.858-3.15 8.48 8.48 0 0 1 2.818-2.13c1.099-.54 2.318-.81 3.657-.81.92 0 1.789.1 2.608.3.84.18 1.649.45 2.428.81.78.36 1.54.8 2.279 1.32.759.52 1.529 1.1 2.308 1.74.52.44 1.02.84 1.499 1.2.48.34.95.63 1.409.87.54.3 1.089.53 1.648.69.56.14 1.14.2 1.74.18.699 0 1.348-.16 1.948-.48.62-.32 1.159-.75 1.618-1.29.44-.52.79-1.13 1.05-1.83.26-.7.39-1.43.39-2.19l4.016.54Zm36.873 0c0 1.32-.22 2.59-.66 3.81a10.38 10.38 0 0 1-1.858 3.24c-.8.94-1.749 1.69-2.848 2.25-1.099.56-2.318.84-3.657.84-.94 0-1.819-.09-2.638-.27-.8-.18-1.579-.45-2.339-.81-.779-.36-1.549-.8-2.308-1.32a31.962 31.962 0 0 1-2.308-1.8c-.66-.54-1.299-1.01-1.919-1.41a8.927 8.927 0 0 0-1.798-.99c-.42-.18-.85-.31-1.289-.39a7.04 7.04 0 0 0-1.319-.12c-.7 0-1.359.15-1.979.45-.6.28-1.119.66-1.559 1.14-.44.5-.789 1.09-1.049 1.77-.26.66-.39 1.37-.39 2.13l-4.017-.51c0-1.32.22-2.58.66-3.78a9.724 9.724 0 0 1 1.858-3.15c.78-.9 1.719-1.61 2.818-2.13 1.099-.54 2.319-.81 3.658-.81.919 0 1.788.1 2.608.3.839.18 1.648.45 2.428.81.779.36 1.539.8 2.278 1.32.759.52 1.529 1.1 2.308 1.74.52.44 1.02.84 1.499 1.2.48.34.949.63 1.409.87.54.3 1.089.53 1.649.69.56.14 1.139.2 1.739.18.699 0 1.349-.16 1.948-.48.62-.32 1.159-.75 1.619-1.29a6.08 6.08 0 0 0 1.049-1.83c.26-.7.39-1.43.39-2.19l4.017.54Zm36.872 0c0 1.32-.22 2.59-.659 3.81-.44 1.22-1.059 2.3-1.859 3.24a9.16 9.16 0 0 1-2.848 2.25c-1.099.56-2.318.84-3.657.84-.939 0-1.819-.09-2.638-.27-.799-.18-1.579-.45-2.338-.81-.78-.36-1.549-.8-2.309-1.32a32.183 32.183 0 0 1-2.308-1.8 21.187 21.187 0 0 0-1.918-1.41c-.6-.42-1.2-.75-1.799-.99-.42-.18-.849-.31-1.289-.39-.42-.08-.859-.12-1.319-.12-.7 0-1.359.15-1.979.45-.599.28-1.119.66-1.558 1.14-.44.5-.79 1.09-1.05 1.77a5.779 5.779 0 0 0-.389 2.13l-4.017-.51c0-1.32.22-2.58.659-3.78a9.726 9.726 0 0 1 1.859-3.15 8.467 8.467 0 0 1 2.818-2.13c1.099-.54 2.318-.81 3.657-.81.919 0 1.789.1 2.608.3.839.18 1.649.45 2.428.81.78.36 1.539.8 2.278 1.32.76.52 1.529 1.1 2.309 1.74.519.44 1.019.84 1.499 1.2.479.34.949.63 1.409.87.539.3 1.089.53 1.648.69.56.14 1.139.2 1.739.18.699 0 1.349-.16 1.949-.48a5.303 5.303 0 0 0 1.618-1.29c.44-.52.79-1.13 1.05-1.83.259-.7.389-1.43.389-2.19l4.017.54Zm36.873 0c0 1.32-.22 2.59-.66 3.81a10.4 10.4 0 0 1-1.858 3.24c-.8.94-1.749 1.69-2.848 2.25-1.1.56-2.319.84-3.658.84-.939 0-1.818-.09-2.638-.27-.799-.18-1.578-.45-2.338-.81-.779-.36-1.549-.8-2.308-1.32-.74-.52-1.509-1.12-2.308-1.8-.66-.54-1.299-1.01-1.919-1.41-.6-.42-1.199-.75-1.799-.99a5.958 5.958 0 0 0-1.289-.39 7.025 7.025 0 0 0-1.319-.12c-.699 0-1.359.15-1.978.45-.6.28-1.119.66-1.559 1.14-.44.5-.789 1.09-1.049 1.77-.26.66-.39 1.37-.39 2.13l-4.017-.51c0-1.32.22-2.58.66-3.78a9.724 9.724 0 0 1 1.858-3.15c.78-.9 1.719-1.61 2.818-2.13 1.099-.54 2.318-.81 3.657-.81.92 0 1.789.1 2.608.3.84.18 1.649.45 2.429.81.779.36 1.538.8 2.278 1.32.759.52 1.529 1.1 2.308 1.74.52.44 1.019.84 1.499 1.2.48.34.949.63 1.409.87.54.3 1.089.53 1.649.69.559.14 1.139.2 1.738.18.7 0 1.349-.16 1.949-.48.62-.32 1.159-.75 1.619-1.29a6.1 6.1 0 0 0 1.049-1.83c.26-.7.39-1.43.39-2.19l4.017.54Zm36.872 0c0 1.32-.22 2.59-.659 3.81-.44 1.22-1.06 2.3-1.859 3.24a9.16 9.16 0 0 1-2.848 2.25c-1.099.56-2.318.84-3.657.84-.939 0-1.819-.09-2.638-.27-.8-.18-1.579-.45-2.338-.81-.78-.36-1.549-.8-2.309-1.32a31.962 31.962 0 0 1-2.308-1.8c-.66-.54-1.299-1.01-1.919-1.41a8.927 8.927 0 0 0-1.798-.99c-.42-.18-.85-.31-1.289-.39a7.04 7.04 0 0 0-1.319-.12c-.7 0-1.359.15-1.979.45-.599.28-1.119.66-1.559 1.14-.439.5-.789 1.09-1.049 1.77-.26.66-.39 1.37-.39 2.13l-4.017-.51c0-1.32.22-2.58.66-3.78a9.726 9.726 0 0 1 1.859-3.15 8.473 8.473 0 0 1 2.817-2.13c1.1-.54 2.319-.81 3.658-.81.919 0 1.788.1 2.608.3.839.18 1.649.45 2.428.81.779.36 1.539.8 2.278 1.32.76.52 1.529 1.1 2.309 1.74.519.44 1.019.84 1.498 1.2.48.34.95.63 1.409.87.54.3 1.09.53 1.649.69.56.14 1.139.2 1.739.18.699 0 1.349-.16 1.948-.48.62-.32 1.16-.75 1.619-1.29.44-.52.79-1.13 1.049-1.83.26-.7.39-1.43.39-2.19l4.017.54Zm73.745 0c0 1.32-.22 2.59-.66 3.81a10.38 10.38 0 0 1-1.858 3.24c-.8.94-1.749 1.69-2.848 2.25-1.099.56-2.318.84-3.657.84-.94 0-1.819-.09-2.638-.27-.8-.18-1.579-.45-2.339-.81a15.91 15.91 0 0 1-2.308-1.32 31.962 31.962 0 0 1-2.308-1.8c-.66-.54-1.299-1.01-1.919-1.41a8.927 8.927 0 0 0-1.798-.99c-.42-.18-.85-.31-1.289-.39a7.04 7.04 0 0 0-1.319-.12c-.7 0-1.359.15-1.979.45-.6.28-1.119.66-1.559 1.14-.439.5-.789 1.09-1.049 1.77-.26.66-.39 1.37-.39 2.13l-4.017-.51c0-1.32.22-2.58.66-3.78a9.724 9.724 0 0 1 1.858-3.15c.78-.9 1.719-1.61 2.818-2.13 1.099-.54 2.319-.81 3.658-.81.919 0 1.788.1 2.608.3.839.18 1.648.45 2.428.81.779.36 1.539.8 2.278 1.32.76.52 1.529 1.1 2.308 1.74.52.44 1.02.84 1.499 1.2.48.34.95.63 1.409.87.54.3 1.089.53 1.649.69.56.14 1.139.2 1.739.18.699 0 1.349-.16 1.948-.48.62-.32 1.159-.75 1.619-1.29a6.08 6.08 0 0 0 1.049-1.83c.26-.7.39-1.43.39-2.19l4.017.54Zm36.872 0c0 1.32-.219 2.59-.659 3.81-.44 1.22-1.059 2.3-1.859 3.24a9.16 9.16 0 0 1-2.848 2.25c-1.099.56-2.318.84-3.657.84-.939 0-1.819-.09-2.638-.27-.799-.18-1.579-.45-2.338-.81-.78-.36-1.549-.8-2.308-1.32-.74-.52-1.509-1.12-2.309-1.8a21.187 21.187 0 0 0-1.918-1.41c-.6-.42-1.199-.75-1.799-.99-.42-.18-.849-.31-1.289-.39-.42-.08-.859-.12-1.319-.12-.699 0-1.359.15-1.979.45-.599.28-1.119.66-1.558 1.14-.44.5-.79 1.09-1.05 1.77a5.779 5.779 0 0 0-.389 2.13l-4.017-.51c0-1.32.22-2.58.659-3.78a9.726 9.726 0 0 1 1.859-3.15 8.477 8.477 0 0 1 2.818-2.13c1.099-.54 2.318-.81 3.657-.81.919 0 1.789.1 2.608.3.839.18 1.649.45 2.428.81.78.36 1.539.8 2.278 1.32.76.52 1.529 1.1 2.309 1.74.519.44 1.019.84 1.499 1.2.479.34.949.63 1.409.87.539.3 1.089.53 1.648.69.56.14 1.14.2 1.739.18.7 0 1.349-.16 1.949-.48a5.303 5.303 0 0 0 1.618-1.29c.44-.52.79-1.13 1.05-1.83.259-.7.389-1.43.389-2.19l4.017.54Zm36.873 0c0 1.32-.22 2.59-.66 3.81a10.38 10.38 0 0 1-1.858 3.24c-.8.94-1.749 1.69-2.848 2.25-1.099.56-2.319.84-3.658.84-.939 0-1.818-.09-2.638-.27-.799-.18-1.578-.45-2.338-.81-.779-.36-1.549-.8-2.308-1.32-.74-.52-1.509-1.12-2.308-1.8-.66-.54-1.299-1.01-1.919-1.41a8.906 8.906 0 0 0-1.799-.99 5.958 5.958 0 0 0-1.289-.39 7.025 7.025 0 0 0-1.319-.12c-.699 0-1.359.15-1.978.45-.6.28-1.119.66-1.559 1.14-.44.5-.789 1.09-1.049 1.77-.26.66-.39 1.37-.39 2.13l-4.017-.51c0-1.32.22-2.58.66-3.78a9.724 9.724 0 0 1 1.858-3.15c.78-.9 1.719-1.61 2.818-2.13 1.099-.54 2.318-.81 3.657-.81.92 0 1.789.1 2.608.3.84.18 1.649.45 2.429.81.779.36 1.538.8 2.278 1.32.759.52 1.529 1.1 2.308 1.74.52.44 1.019.84 1.499 1.2.48.34.949.63 1.409.87.54.3 1.089.53 1.649.69.559.14 1.139.2 1.738.18.7 0 1.349-.16 1.949-.48.62-.32 1.159-.75 1.619-1.29a6.1 6.1 0 0 0 1.049-1.83c.26-.7.39-1.43.39-2.19l4.017.54Zm36.872 0c0 1.32-.22 2.59-.659 3.81-.44 1.22-1.06 2.3-1.859 3.24a9.16 9.16 0 0 1-2.848 2.25c-1.099.56-2.318.84-3.657.84-.939 0-1.819-.09-2.638-.27-.8-.18-1.579-.45-2.338-.81-.78-.36-1.549-.8-2.309-1.32a31.962 31.962 0 0 1-2.308-1.8 21.187 21.187 0 0 0-1.918-1.41c-.6-.42-1.2-.75-1.799-.99-.42-.18-.85-.31-1.289-.39a7.04 7.04 0 0 0-1.319-.12c-.7 0-1.359.15-1.979.45-.599.28-1.119.66-1.559 1.14-.439.5-.789 1.09-1.049 1.77-.26.66-.389 1.37-.389 2.13l-4.017-.51c0-1.32.219-2.58.659-3.78a9.726 9.726 0 0 1 1.859-3.15 8.467 8.467 0 0 1 2.818-2.13c1.099-.54 2.318-.81 3.657-.81.919 0 1.788.1 2.608.3.839.18 1.649.45 2.428.81.779.36 1.539.8 2.278 1.32.76.52 1.529 1.1 2.309 1.74.519.44 1.019.84 1.498 1.2.48.34.95.63 1.409.87.54.3 1.09.53 1.649.69.56.14 1.139.2 1.739.18.699 0 1.349-.16 1.948-.48.62-.32 1.16-.75 1.619-1.29.44-.52.79-1.13 1.049-1.83.26-.7.39-1.43.39-2.19l4.017.54Zm36.873 0c0 1.32-.22 2.59-.66 3.81-.44 1.22-1.059 2.3-1.859 3.24a9.157 9.157 0 0 1-2.847 2.25c-1.1.56-2.319.84-3.658.84-.939 0-1.818-.09-2.638-.27-.799-.18-1.579-.45-2.338-.81-.779-.36-1.549-.8-2.308-1.32-.74-.52-1.509-1.12-2.309-1.8a21.187 21.187 0 0 0-1.918-1.41c-.6-.42-1.199-.75-1.799-.99a5.958 5.958 0 0 0-1.289-.39 7.025 7.025 0 0 0-1.319-.12c-.699 0-1.359.15-1.978.45-.6.28-1.119.66-1.559 1.14-.44.5-.79 1.09-1.049 1.77-.26.66-.39 1.37-.39 2.13l-4.017-.51c0-1.32.22-2.58.659-3.78.44-1.2 1.06-2.25 1.859-3.15a8.477 8.477 0 0 1 2.818-2.13c1.099-.54 2.318-.81 3.657-.81.92 0 1.789.1 2.608.3.84.18 1.649.45 2.428.81.78.36 1.539.8 2.279 1.32.759.52 1.529 1.1 2.308 1.74.52.44 1.019.84 1.499 1.2.48.34.949.63 1.409.87.539.3 1.089.53 1.649.69.559.14 1.139.2 1.738.18.7 0 1.349-.16 1.949-.48a5.319 5.319 0 0 0 1.619-1.29 6.1 6.1 0 0 0 1.049-1.83c.26-.7.39-1.43.39-2.19l4.017.54Zm36.872 0c0 1.32-.22 2.59-.66 3.81a10.38 10.38 0 0 1-1.858 3.24c-.8.94-1.749 1.69-2.848 2.25-1.099.56-2.318.84-3.657.84-.94 0-1.819-.09-2.638-.27-.8-.18-1.579-.45-2.339-.81a15.91 15.91 0 0 1-2.308-1.32 31.962 31.962 0 0 1-2.308-1.8c-.66-.54-1.299-1.01-1.919-1.41a8.927 8.927 0 0 0-1.798-.99c-.42-.18-.85-.31-1.289-.39a7.04 7.04 0 0 0-1.319-.12c-.7 0-1.359.15-1.979.45-.599.28-1.119.66-1.559 1.14-.439.5-.789 1.09-1.049 1.77-.26.66-.39 1.37-.39 2.13l-4.017-.51c0-1.32.22-2.58.66-3.78a9.742 9.742 0 0 1 1.858-3.15c.78-.9 1.719-1.61 2.818-2.13 1.1-.54 2.319-.81 3.658-.81.919 0 1.788.1 2.608.3.839.18 1.648.45 2.428.81.779.36 1.539.8 2.278 1.32.76.52 1.529 1.1 2.308 1.74.52.44 1.02.84 1.499 1.2.48.34.95.63 1.409.87.54.3 1.089.53 1.649.69.56.14 1.139.2 1.739.18.699 0 1.349-.16 1.948-.48.62-.32 1.159-.75 1.619-1.29a6.08 6.08 0 0 0 1.049-1.83c.26-.7.39-1.43.39-2.19l4.017.54Zm36.872 0c0 1.32-.219 2.59-.659 3.81-.44 1.22-1.059 2.3-1.859 3.24a9.15 9.15 0 0 1-2.848 2.25c-1.099.56-2.318.84-3.657.84-.939 0-1.819-.09-2.638-.27-.799-.18-1.579-.45-2.338-.81-.78-.36-1.549-.8-2.308-1.32-.74-.52-1.509-1.12-2.309-1.8a21.187 21.187 0 0 0-1.918-1.41c-.6-.42-1.199-.75-1.799-.99-.42-.18-.849-.31-1.289-.39-.42-.08-.859-.12-1.319-.12-.699 0-1.359.15-1.978.45-.6.28-1.12.66-1.559 1.14-.44.5-.79 1.09-1.05 1.77a5.779 5.779 0 0 0-.389 2.13l-4.017-.51c0-1.32.22-2.58.659-3.78a9.726 9.726 0 0 1 1.859-3.15 8.477 8.477 0 0 1 2.818-2.13c1.099-.54 2.318-.81 3.657-.81.919 0 1.789.1 2.608.3.839.18 1.649.45 2.428.81.78.36 1.539.8 2.279 1.32.759.52 1.528 1.1 2.308 1.74.519.44 1.019.84 1.499 1.2.479.34.949.63 1.409.87.539.3 1.089.53 1.648.69.56.14 1.14.2 1.739.18.7 0 1.349-.16 1.949-.48a5.303 5.303 0 0 0 1.618-1.29c.44-.52.79-1.13 1.05-1.83.259-.7.389-1.43.389-2.19l4.017.54Zm36.873 0c0 1.32-.22 2.59-.66 3.81a10.38 10.38 0 0 1-1.858 3.24c-.8.94-1.749 1.69-2.848 2.25-1.099.56-2.319.84-3.658.84-.939 0-1.818-.09-2.638-.27-.799-.18-1.578-.45-2.338-.81-.779-.36-1.549-.8-2.308-1.32a31.962 31.962 0 0 1-2.308-1.8c-.66-.54-1.299-1.01-1.919-1.41a8.927 8.927 0 0 0-1.798-.99c-.42-.18-.85-.31-1.29-.39a7.025 7.025 0 0 0-1.319-.12c-.699 0-1.359.15-1.978.45-.6.28-1.119.66-1.559 1.14-.44.5-.789 1.09-1.049 1.77-.26.66-.39 1.37-.39 2.13l-4.017-.51c0-1.32.22-2.58.66-3.78a9.724 9.724 0 0 1 1.858-3.15c.78-.9 1.719-1.61 2.818-2.13 1.099-.54 2.318-.81 3.657-.81.92 0 1.789.1 2.609.3.839.18 1.648.45 2.428.81.779.36 1.539.8 2.278 1.32.759.52 1.529 1.1 2.308 1.74.52.44 1.019.84 1.499 1.2.48.34.949.63 1.409.87.54.3 1.089.53 1.649.69.559.14 1.139.2 1.738.18.7 0 1.349-.16 1.949-.48.62-.32 1.159-.75 1.619-1.29a6.08 6.08 0 0 0 1.049-1.83c.26-.7.39-1.43.39-2.19l4.017.54Zm36.872 0c0 1.32-.22 2.59-.659 3.81-.44 1.22-1.06 2.3-1.859 3.24a9.16 9.16 0 0 1-2.848 2.25c-1.099.56-2.318.84-3.657.84-.939 0-1.819-.09-2.638-.27-.8-.18-1.579-.45-2.338-.81-.78-.36-1.549-.8-2.309-1.32a32.183 32.183 0 0 1-2.308-1.8 21.187 21.187 0 0 0-1.918-1.41c-.6-.42-1.2-.75-1.799-.99-.42-.18-.849-.31-1.289-.39a7.04 7.04 0 0 0-1.319-.12c-.7 0-1.359.15-1.979.45-.599.28-1.119.66-1.559 1.14-.439.5-.789 1.09-1.049 1.77a5.779 5.779 0 0 0-.389 2.13l-4.017-.51c0-1.32.219-2.58.659-3.78a9.726 9.726 0 0 1 1.859-3.15 8.467 8.467 0 0 1 2.818-2.13c1.099-.54 2.318-.81 3.657-.81.919 0 1.788.1 2.608.3.839.18 1.649.45 2.428.81.78.36 1.539.8 2.278 1.32.76.52 1.529 1.1 2.309 1.74.519.44 1.019.84 1.499 1.2.479.34.949.63 1.408.87.54.3 1.09.53 1.649.69.56.14 1.139.2 1.739.18.699 0 1.349-.16 1.948-.48.62-.32 1.16-.75 1.619-1.29.44-.52.79-1.13 1.049-1.83.26-.7.39-1.43.39-2.19l4.017.54Zm36.873 0c0 1.32-.22 2.59-.66 3.81-.44 1.22-1.059 2.3-1.859 3.24a9.157 9.157 0 0 1-2.847 2.25c-1.1.56-2.319.84-3.658.84-.939 0-1.818-.09-2.638-.27-.799-.18-1.578-.45-2.338-.81-.779-.36-1.549-.8-2.308-1.32-.74-.52-1.509-1.12-2.308-1.8-.66-.54-1.299-1.01-1.919-1.41-.6-.42-1.199-.75-1.799-.99a5.958 5.958 0 0 0-1.289-.39 7.025 7.025 0 0 0-1.319-.12c-.699 0-1.359.15-1.978.45-.6.28-1.119.66-1.559 1.14-.44.5-.79 1.09-1.049 1.77-.26.66-.39 1.37-.39 2.13l-4.017-.51c0-1.32.22-2.58.659-3.78.44-1.2 1.06-2.25 1.859-3.15.78-.9 1.719-1.61 2.818-2.13 1.099-.54 2.318-.81 3.657-.81.92 0 1.789.1 2.608.3.84.18 1.649.45 2.428.81.78.36 1.539.8 2.279 1.32.759.52 1.529 1.1 2.308 1.74.52.44 1.019.84 1.499 1.2.48.34.949.63 1.409.87.539.3 1.089.53 1.649.69.559.14 1.139.2 1.738.18.7 0 1.349-.16 1.949-.48a5.319 5.319 0 0 0 1.619-1.29 6.1 6.1 0 0 0 1.049-1.83c.26-.7.39-1.43.39-2.19l4.017.54Zm36.872 0c0 1.32-.22 2.59-.66 3.81a10.38 10.38 0 0 1-1.858 3.24c-.8.94-1.749 1.69-2.848 2.25-1.099.56-2.318.84-3.657.84-.94 0-1.819-.09-2.638-.27-.8-.18-1.579-.45-2.339-.81a15.91 15.91 0 0 1-2.308-1.32 31.962 31.962 0 0 1-2.308-1.8c-.66-.54-1.299-1.01-1.919-1.41a8.927 8.927 0 0 0-1.798-.99c-.42-.18-.85-.31-1.289-.39a7.04 7.04 0 0 0-1.319-.12c-.7 0-1.359.15-1.979.45-.599.28-1.119.66-1.559 1.14-.439.5-.789 1.09-1.049 1.77-.26.66-.39 1.37-.39 2.13l-4.017-.51c0-1.32.22-2.58.66-3.78a9.742 9.742 0 0 1 1.858-3.15c.78-.9 1.719-1.61 2.818-2.13 1.1-.54 2.319-.81 3.658-.81.919 0 1.788.1 2.608.3.839.18 1.648.45 2.428.81.779.36 1.539.8 2.278 1.32.76.52 1.529 1.1 2.308 1.74.52.44 1.02.84 1.499 1.2.48.34.95.63 1.409.87.54.3 1.089.53 1.649.69.56.14 1.139.2 1.739.18.699 0 1.349-.16 1.948-.48.62-.32 1.159-.75 1.619-1.29a6.08 6.08 0 0 0 1.049-1.83c.26-.7.39-1.43.39-2.19l4.017.54Zm36.872 0c0 1.32-.219 2.59-.659 3.81-.44 1.22-1.059 2.3-1.859 3.24a9.15 9.15 0 0 1-2.848 2.25c-1.099.56-2.318.84-3.657.84-.939 0-1.818-.09-2.638-.27-.799-.18-1.579-.45-2.338-.81-.78-.36-1.549-.8-2.308-1.32-.74-.52-1.509-1.12-2.309-1.8a21.187 21.187 0 0 0-1.918-1.41c-.6-.42-1.199-.75-1.799-.99-.42-.18-.849-.31-1.289-.39-.42-.08-.859-.12-1.319-.12-.699 0-1.359.15-1.978.45-.6.28-1.12.66-1.559 1.14-.44.5-.79 1.09-1.05 1.77a5.779 5.779 0 0 0-.389 2.13l-4.017-.51c0-1.32.22-2.58.659-3.78.44-1.2 1.06-2.25 1.859-3.15a8.477 8.477 0 0 1 2.818-2.13c1.099-.54 2.318-.81 3.657-.81.919 0 1.789.1 2.608.3.84.18 1.649.45 2.428.81.78.36 1.539.8 2.279 1.32.759.52 1.528 1.1 2.308 1.74.519.44 1.019.84 1.499 1.2.479.34.949.63 1.409.87.539.3 1.089.53 1.648.69.56.14 1.14.2 1.739.18.7 0 1.349-.16 1.949-.48a5.319 5.319 0 0 0 1.619-1.29 6.1 6.1 0 0 0 1.049-1.83c.26-.7.389-1.43.389-2.19l4.017.54Zm36.873 0c0 1.32-.22 2.59-.66 3.81a10.38 10.38 0 0 1-1.858 3.24c-.8.94-1.749 1.69-2.848 2.25-1.099.56-2.318.84-3.657.84-.94 0-1.819-.09-2.638-.27-.8-.18-1.579-.45-2.339-.81-.779-.36-1.549-.8-2.308-1.32a31.962 31.962 0 0 1-2.308-1.8c-.66-.54-1.299-1.01-1.919-1.41a8.906 8.906 0 0 0-1.799-.99 5.958 5.958 0 0 0-1.289-.39 7.025 7.025 0 0 0-1.319-.12c-.699 0-1.358.15-1.978.45-.6.28-1.119.66-1.559 1.14-.44.5-.789 1.09-1.049 1.77-.26.66-.39 1.37-.39 2.13l-4.017-.51c0-1.32.22-2.58.66-3.78a9.724 9.724 0 0 1 1.858-3.15c.78-.9 1.719-1.61 2.818-2.13 1.099-.54 2.318-.81 3.657-.81.92 0 1.789.1 2.608.3.84.18 1.649.45 2.429.81.779.36 1.539.8 2.278 1.32.759.52 1.529 1.1 2.308 1.74.52.44 1.02.84 1.499 1.2.48.34.949.63 1.409.87.54.3 1.089.53 1.649.69.559.14 1.139.2 1.739.18.699 0 1.349-.16 1.948-.48.62-.32 1.159-.75 1.619-1.29a6.08 6.08 0 0 0 1.049-1.83c.26-.7.39-1.43.39-2.19l4.017.54Zm36.872 0c0 1.32-.22 2.59-.659 3.81-.44 1.22-1.059 2.3-1.859 3.24a9.16 9.16 0 0 1-2.848 2.25c-1.099.56-2.318.84-3.657.84-.939 0-1.819-.09-2.638-.27-.799-.18-1.579-.45-2.338-.81-.78-.36-1.549-.8-2.309-1.32a32.183 32.183 0 0 1-2.308-1.8 21.187 21.187 0 0 0-1.918-1.41c-.6-.42-1.199-.75-1.799-.99-.42-.18-.849-.31-1.289-.39-.42-.08-.859-.12-1.319-.12-.7 0-1.359.15-1.979.45-.599.28-1.119.66-1.558 1.14-.44.5-.79 1.09-1.05 1.77a5.779 5.779 0 0 0-.389 2.13l-4.017-.51c0-1.32.219-2.58.659-3.78a9.726 9.726 0 0 1 1.859-3.15 8.467 8.467 0 0 1 2.818-2.13c1.099-.54 2.318-.81 3.657-.81.919 0 1.789.1 2.608.3.839.18 1.649.45 2.428.81.78.36 1.539.8 2.278 1.32.76.52 1.529 1.1 2.309 1.74.519.44 1.019.84 1.499 1.2.479.34.949.63 1.409.87.539.3 1.089.53 1.648.69.56.14 1.139.2 1.739.18.699 0 1.349-.16 1.949-.48a5.303 5.303 0 0 0 1.618-1.29c.44-.52.79-1.13 1.05-1.83.259-.7.389-1.43.389-2.19l4.017.54Zm36.873 0c0 1.32-.22 2.59-.66 3.81a10.38 10.38 0 0 1-1.858 3.24c-.8.94-1.749 1.69-2.848 2.25-1.099.56-2.319.84-3.658.84-.939 0-1.818-.09-2.638-.27-.799-.18-1.578-.45-2.338-.81-.779-.36-1.549-.8-2.308-1.32-.74-.52-1.509-1.12-2.308-1.8-.66-.54-1.299-1.01-1.919-1.41-.6-.42-1.199-.75-1.799-.99a5.958 5.958 0 0 0-1.289-.39 7.025 7.025 0 0 0-1.319-.12c-.699 0-1.359.15-1.978.45-.6.28-1.119.66-1.559 1.14-.44.5-.789 1.09-1.049 1.77-.26.66-.39 1.37-.39 2.13l-4.017-.51c0-1.32.22-2.58.66-3.78a9.724 9.724 0 0 1 1.858-3.15c.78-.9 1.719-1.61 2.818-2.13 1.099-.54 2.318-.81 3.657-.81.92 0 1.789.1 2.608.3.84.18 1.649.45 2.429.81.779.36 1.538.8 2.278 1.32.759.52 1.529 1.1 2.308 1.74.52.44 1.019.84 1.499 1.2.48.34.949.63 1.409.87.54.3 1.089.53 1.649.69.559.14 1.139.2 1.738.18.7 0 1.349-.16 1.949-.48a5.319 5.319 0 0 0 1.619-1.29 6.1 6.1 0 0 0 1.049-1.83c.26-.7.39-1.43.39-2.19l4.017.54Zm36.872 0c0 1.32-.22 2.59-.659 3.81-.44 1.22-1.06 2.3-1.859 3.24-.8.94-1.749 1.69-2.848 2.25-1.099.56-2.318.84-3.657.84-.94 0-1.819-.09-2.638-.27-.8-.18-1.579-.45-2.339-.81a15.91 15.91 0 0 1-2.308-1.32 31.962 31.962 0 0 1-2.308-1.8c-.66-.54-1.299-1.01-1.919-1.41a8.927 8.927 0 0 0-1.798-.99c-.42-.18-.85-.31-1.289-.39a7.04 7.04 0 0 0-1.319-.12c-.7 0-1.359.15-1.979.45-.599.28-1.119.66-1.559 1.14-.439.5-.789 1.09-1.049 1.77-.26.66-.389 1.37-.389 2.13l-4.018-.51c0-1.32.22-2.58.66-3.78a9.726 9.726 0 0 1 1.859-3.15 8.473 8.473 0 0 1 2.817-2.13c1.1-.54 2.319-.81 3.658-.81.919 0 1.788.1 2.608.3.839.18 1.649.45 2.428.81.779.36 1.539.8 2.278 1.32.76.52 1.529 1.1 2.309 1.74.519.44 1.019.84 1.498 1.2.48.34.95.63 1.409.87.54.3 1.09.53 1.649.69.56.14 1.139.2 1.739.18.699 0 1.349-.16 1.948-.48.62-.32 1.16-.75 1.619-1.29.44-.52.79-1.13 1.049-1.83.26-.7.39-1.43.39-2.19l4.017.54Zm33.935 0c0 1.32-.22 2.59-.66 3.81a10.4 10.4 0 0 1-1.858 3.24c-.8.94-1.749 1.69-2.848 2.25-1.1.56-2.319.84-3.658.84-.939 0-1.818-.09-2.638-.27-.799-.18-1.579-.45-2.338-.81-.779-.36-1.549-.8-2.308-1.32-.74-.52-1.509-1.12-2.308-1.8-.66-.54-1.3-1.01-1.919-1.41-.6-.42-1.199-.75-1.799-.99a5.958 5.958 0 0 0-1.289-.39 7.025 7.025 0 0 0-1.319-.12c-.699 0-1.359.15-1.978.45-.6.28-1.119.66-1.559 1.14-.44.5-.789 1.09-1.049 1.77-.26.66-.39 1.37-.39 2.13l-4.017-.51c0-1.32.22-2.58.659-3.78.44-1.2 1.06-2.25 1.859-3.15a8.477 8.477 0 0 1 2.818-2.13c1.099-.54 2.318-.81 3.657-.81.92 0 1.789.1 2.608.3.84.18 1.649.45 2.429.81.779.36 1.538.8 2.278 1.32.759.52 1.529 1.1 2.308 1.74.52.44 1.019.84 1.499 1.2.48.34.949.63 1.409.87.54.3 1.089.53 1.649.69.559.14 1.139.2 1.738.18.7 0 1.349-.16 1.949-.48a5.319 5.319 0 0 0 1.619-1.29 6.1 6.1 0 0 0 1.049-1.83c.26-.7.39-1.43.39-2.19l4.017.54Zm36.872 0c0 1.32-.22 2.59-.66 3.81a10.38 10.38 0 0 1-1.858 3.24c-.8.94-1.749 1.69-2.848 2.25-1.099.56-2.318.84-3.657.84-.94 0-1.819-.09-2.638-.27-.8-.18-1.579-.45-2.339-.81a15.91 15.91 0 0 1-2.308-1.32 31.962 31.962 0 0 1-2.308-1.8c-.66-.54-1.299-1.01-1.919-1.41a8.927 8.927 0 0 0-1.798-.99c-.42-.18-.85-.31-1.289-.39a7.04 7.04 0 0 0-1.319-.12c-.7 0-1.359.15-1.979.45-.599.28-1.119.66-1.559 1.14-.439.5-.789 1.09-1.049 1.77-.26.66-.39 1.37-.39 2.13l-4.017-.51c0-1.32.22-2.58.66-3.78a9.726 9.726 0 0 1 1.859-3.15 8.473 8.473 0 0 1 2.817-2.13c1.1-.54 2.319-.81 3.658-.81.919 0 1.788.1 2.608.3.839.18 1.648.45 2.428.81.779.36 1.539.8 2.278 1.32.76.52 1.529 1.1 2.309 1.74.519.44 1.019.84 1.498 1.2.48.34.95.63 1.409.87.54.3 1.089.53 1.649.69.56.14 1.139.2 1.739.18.699 0 1.349-.16 1.948-.48.62-.32 1.159-.75 1.619-1.29.44-.52.79-1.13 1.049-1.83.26-.7.39-1.43.39-2.19l4.017.54Zm36.872 0c0 1.32-.219 2.59-.659 3.81-.44 1.22-1.059 2.3-1.859 3.24a9.15 9.15 0 0 1-2.848 2.25c-1.099.56-2.318.84-3.657.84-.939 0-1.819-.09-2.638-.27-.799-.18-1.579-.45-2.338-.81-.779-.36-1.549-.8-2.308-1.32-.74-.52-1.509-1.12-2.309-1.8a21.187 21.187 0 0 0-1.918-1.41c-.6-.42-1.199-.75-1.799-.99a5.958 5.958 0 0 0-1.289-.39c-.42-.08-.859-.12-1.319-.12-.699 0-1.359.15-1.978.45-.6.28-1.12.66-1.559 1.14-.44.5-.79 1.09-1.05 1.77a5.779 5.779 0 0 0-.389 2.13l-4.017-.51c0-1.32.22-2.58.659-3.78.44-1.2 1.06-2.25 1.859-3.15a8.477 8.477 0 0 1 2.818-2.13c1.099-.54 2.318-.81 3.657-.81.919 0 1.789.1 2.608.3.84.18 1.649.45 2.428.81.78.36 1.539.8 2.279 1.32.759.52 1.528 1.1 2.308 1.74.519.44 1.019.84 1.499 1.2.479.34.949.63 1.409.87.539.3 1.089.53 1.648.69.56.14 1.14.2 1.739.18.7 0 1.349-.16 1.949-.48a5.319 5.319 0 0 0 1.619-1.29 6.1 6.1 0 0 0 1.049-1.83c.26-.7.389-1.43.389-2.19l4.017.54Zm36.871 0c0 1.32-.22 2.59-.66 3.81-.44 1.22-1.06 2.3-1.86 3.24-.8.94-1.75 1.69-2.84 2.25-1.1.56-2.32.84-3.66.84-.94 0-1.82-.09-2.64-.27-.8-.18-1.58-.45-2.34-.81-.78-.36-1.55-.8-2.31-1.32-.74-.52-1.5-1.12-2.3-1.8-.66-.54-1.3-1.01-1.92-1.41-.6-.42-1.2-.75-1.8-.99a6.008 6.008 0 0 0-1.291-.39 7.025 7.025 0 0 0-1.319-.12c-.699 0-1.359.15-1.978.45-.6.28-1.119.66-1.559 1.14-.44.5-.789 1.09-1.049 1.77-.26.66-.39 1.37-.39 2.13l-4.017-.51c0-1.32.22-2.58.66-3.78a9.724 9.724 0 0 1 1.858-3.15c.78-.9 1.719-1.61 2.818-2.13 1.099-.54 2.318-.81 3.657-.81.92 0 1.789.1 2.61.3.84.18 1.65.45 2.43.81.78.36 1.54.8 2.28 1.32.75.52 1.52 1.1 2.3 1.74.52.44 1.02.84 1.5 1.2.48.34.95.63 1.41.87.54.3 1.09.53 1.65.69.56.14 1.14.2 1.74.18.7 0 1.35-.16 1.95-.48a5.31 5.31 0 0 0 1.62-1.29c.44-.52.79-1.13 1.05-1.83.25-.7.38-1.43.38-2.19l4.02.54Zm36.87 0c0 1.32-.22 2.59-.66 3.81-.43 1.22-1.05 2.3-1.85 3.24-.8.94-1.75 1.69-2.85 2.25s-2.32.84-3.66.84c-.94 0-1.82-.09-2.64-.27-.8-.18-1.58-.45-2.34-.81-.77-.36-1.54-.8-2.3-1.32-.74-.52-1.51-1.12-2.31-1.8-.66-.54-1.3-1.01-1.92-1.41-.6-.42-1.2-.75-1.8-.99-.42-.18-.85-.31-1.29-.39-.42-.08-.86-.12-1.32-.12-.7 0-1.36.15-1.98.45-.6.28-1.11.66-1.55 1.14-.44.5-.79 1.09-1.05 1.77-.26.66-.39 1.37-.39 2.13l-4.02-.51c0-1.32.22-2.58.66-3.78.44-1.2 1.06-2.25 1.86-3.15.78-.9 1.72-1.61 2.82-2.13 1.09-.54 2.31-.81 3.65-.81.92 0 1.79.1 2.61.3.84.18 1.65.45 2.43.81.78.36 1.54.8 2.28 1.32.76.52 1.53 1.1 2.31 1.74.52.44 1.01.84 1.49 1.2.48.34.95.63 1.41.87.54.3 1.09.53 1.65.69.56.14 1.14.2 1.74.18.7 0 1.35-.16 1.95-.48a5.31 5.31 0 0 0 1.62-1.29c.44-.52.79-1.13 1.05-1.83.26-.7.39-1.43.39-2.19l4.01.54Zm36.88 0c0 1.32-.22 2.59-.66 3.81-.44 1.22-1.06 2.3-1.86 3.24-.8.94-1.75 1.69-2.85 2.25s-2.32.84-3.66.84c-.94 0-1.82-.09-2.63-.27-.8-.18-1.58-.45-2.34-.81-.78-.36-1.55-.8-2.31-1.32-.74-.52-1.51-1.12-2.31-1.8-.66-.54-1.3-1.01-1.92-1.41-.6-.42-1.2-.75-1.8-.99-.42-.18-.85-.31-1.29-.39-.42-.08-.85-.12-1.31-.12-.7 0-1.36.15-1.98.45-.6.28-1.12.66-1.56 1.14-.44.5-.79 1.09-1.05 1.77-.26.66-.39 1.37-.39 2.13l-4.02-.51c0-1.32.22-2.58.66-3.78.44-1.2 1.06-2.25 1.86-3.15.78-.9 1.72-1.61 2.82-2.13 1.1-.54 2.32-.81 3.66-.81.91 0 1.78.1 2.6.3.84.18 1.65.45 2.43.81.78.36 1.54.8 2.28 1.32.76.52 1.53 1.1 2.31 1.74.52.44 1.02.84 1.5 1.2.48.34.95.63 1.41.87.54.3 1.09.53 1.64.69.56.14 1.14.2 1.74.18.7 0 1.35-.16 1.95-.48a5.31 5.31 0 0 0 1.62-1.29c.44-.52.79-1.13 1.05-1.83.26-.7.39-1.43.39-2.19l4.02.54Zm36.87 0c0 1.32-.22 2.59-.66 3.81-.44 1.22-1.06 2.3-1.86 3.24-.8.94-1.75 1.69-2.85 2.25s-2.32.84-3.65.84c-.94 0-1.82-.09-2.64-.27-.8-.18-1.58-.45-2.34-.81-.78-.36-1.55-.8-2.31-1.32-.74-.52-1.51-1.12-2.31-1.8-.66-.54-1.3-1.01-1.92-1.41-.6-.42-1.19-.75-1.79-.99-.42-.18-.85-.31-1.29-.39-.42-.08-.86-.12-1.32-.12-.7 0-1.36.15-1.98.45-.6.28-1.12.66-1.56 1.14-.44.5-.79 1.09-1.05 1.77-.26.66-.39 1.37-.39 2.13l-4.02-.51c0-1.32.22-2.58.66-3.78.44-1.2 1.06-2.25 1.86-3.15.78-.9 1.72-1.61 2.82-2.13 1.1-.54 2.32-.81 3.66-.81.92 0 1.79.1 2.61.3.84.18 1.64.45 2.42.81.78.36 1.54.8 2.28 1.32.76.52 1.53 1.1 2.31 1.74.52.44 1.02.84 1.5 1.2.48.34.95.63 1.41.87.54.3 1.09.53 1.65.69.56.14 1.14.2 1.74.18.7 0 1.34-.16 1.94-.48a5.31 5.31 0 0 0 1.62-1.29c.44-.52.79-1.13 1.05-1.83.26-.7.39-1.43.39-2.19l4.02.54Zm36.87 0c0 1.32-.22 2.59-.66 3.81-.44 1.22-1.06 2.3-1.86 3.24-.8.94-1.75 1.69-2.84 2.25-1.1.56-2.32.84-3.66.84-.94 0-1.82-.09-2.64-.27-.8-.18-1.58-.45-2.34-.81-.78-.36-1.55-.8-2.31-1.32-.74-.52-1.51-1.12-2.3-1.8-.66-.54-1.3-1.01-1.92-1.41-.6-.42-1.2-.75-1.8-.99-.42-.18-.85-.31-1.29-.39-.42-.08-.86-.12-1.32-.12-.7 0-1.36.15-1.98.45-.6.28-1.12.66-1.56 1.14-.44.5-.79 1.09-1.05 1.77-.26.66-.39 1.37-.39 2.13l-4.01-.51c0-1.32.22-2.58.66-3.78.44-1.2 1.06-2.25 1.85-3.15.78-.9 1.72-1.61 2.82-2.13 1.1-.54 2.32-.81 3.66-.81.92 0 1.79.1 2.61.3.84.18 1.65.45 2.43.81.78.36 1.54.8 2.27 1.32.76.52 1.53 1.1 2.31 1.74.52.44 1.02.84 1.5 1.2.48.34.95.63 1.41.87.54.3 1.09.53 1.65.69.56.14 1.14.2 1.74.18.7 0 1.35-.16 1.95-.48a5.31 5.31 0 0 0 1.62-1.29c.44-.52.78-1.13 1.04-1.83.26-.7.39-1.43.39-2.19l4.02.54Zm36.87 0c0 1.32-.22 2.59-.66 3.81-.44 1.22-1.05 2.3-1.85 3.24-.8.94-1.75 1.69-2.85 2.25s-2.32.84-3.66.84c-.94 0-1.82-.09-2.64-.27-.8-.18-1.58-.45-2.34-.81-.78-.36-1.54-.8-2.3-1.32-.74-.52-1.51-1.12-2.31-1.8-.66-.54-1.3-1.01-1.92-1.41-.6-.42-1.2-.75-1.8-.99-.42-.18-.85-.31-1.29-.39-.42-.08-.86-.12-1.32-.12-.7 0-1.36.15-1.98.45-.6.28-1.12.66-1.55 1.14-.44.5-.79 1.09-1.05 1.77-.26.66-.39 1.37-.39 2.13l-4.02-.51c0-1.32.22-2.58.66-3.78.44-1.2 1.06-2.25 1.86-3.15.78-.9 1.72-1.61 2.82-2.13 1.09-.54 2.31-.81 3.65-.81.92 0 1.79.1 2.61.3.84.18 1.65.45 2.43.81.78.36 1.54.8 2.28 1.32.76.52 1.53 1.1 2.31 1.74.51.44 1.01.84 1.49 1.2.48.34.95.63 1.41.87.54.3 1.09.53 1.65.69.56.14 1.14.2 1.74.18.7 0 1.35-.16 1.95-.48a5.31 5.31 0 0 0 1.62-1.29c.44-.52.79-1.13 1.05-1.83.26-.7.39-1.43.39-2.19l4.01.54Zm36.88 0c0 1.32-.22 2.59-.66 3.81-.44 1.22-1.06 2.3-1.86 3.24-.8.94-1.75 1.69-2.85 2.25s-2.32.84-3.66.84c-.94 0-1.82-.09-2.64-.27-.79-.18-1.57-.45-2.33-.81-.78-.36-1.55-.8-2.31-1.32-.74-.52-1.51-1.12-2.31-1.8-.66-.54-1.3-1.01-1.92-1.41-.6-.42-1.2-.75-1.8-.99-.42-.18-.85-.31-1.29-.39-.42-.08-.86-.12-1.32-.12-.69 0-1.35.15-1.97.45-.6.28-1.12.66-1.56 1.14-.44.5-.79 1.09-1.05 1.77-.26.66-.39 1.37-.39 2.13l-4.02-.51c0-1.32.22-2.58.66-3.78.44-1.2 1.06-2.25 1.86-3.15.78-.9 1.72-1.61 2.82-2.13 1.1-.54 2.32-.81 3.65-.81.92 0 1.79.1 2.61.3.84.18 1.65.45 2.43.81.78.36 1.54.8 2.28 1.32.76.52 1.53 1.1 2.31 1.74.52.44 1.02.84 1.5 1.2.48.34.95.63 1.41.87.54.3 1.08.53 1.64.69.56.14 1.14.2 1.74.18.7 0 1.35-.16 1.95-.48a5.31 5.31 0 0 0 1.62-1.29c.44-.52.79-1.13 1.05-1.83.26-.7.39-1.43.39-2.19l4.02.54Zm36.87 0c0 1.32-.22 2.59-.66 3.81-.44 1.22-1.06 2.3-1.86 3.24-.8.94-1.75 1.69-2.85 2.25s-2.32.84-3.65.84c-.94 0-1.82-.09-2.64-.27-.8-.18-1.58-.45-2.34-.81-.78-.36-1.55-.8-2.31-1.32-.74-.52-1.51-1.12-2.31-1.8-.66-.54-1.3-1.01-1.92-1.41-.6-.42-1.2-.75-1.79-.99-.42-.18-.85-.31-1.29-.39-.42-.08-.86-.12-1.32-.12-.7 0-1.36.15-1.98.45-.6.28-1.12.66-1.56 1.14-.44.5-.79 1.09-1.05 1.77-.26.66-.39 1.37-.39 2.13l-4.02-.51c0-1.32.22-2.58.66-3.78.44-1.2 1.06-2.25 1.86-3.15.78-.9 1.72-1.61 2.82-2.13 1.1-.54 2.32-.81 3.66-.81.92 0 1.79.1 2.61.3.83.18 1.64.45 2.42.81.78.36 1.54.8 2.28 1.32.76.52 1.53 1.1 2.31 1.74.52.44 1.02.84 1.5 1.2.48.34.95.63 1.41.87.54.3 1.09.53 1.65.69.56.14 1.14.2 1.74.18.69 0 1.34-.16 1.94-.48a5.31 5.31 0 0 0 1.62-1.29c.44-.52.79-1.13 1.05-1.83.26-.7.39-1.43.39-2.19l4.02.54Zm36.87 0c0 1.32-.22 2.59-.66 3.81-.44 1.22-1.06 2.3-1.86 3.24-.8.94-1.75 1.69-2.84 2.25-1.1.56-2.32.84-3.66.84-.94 0-1.82-.09-2.64-.27-.8-.18-1.58-.45-2.34-.81-.78-.36-1.55-.8-2.31-1.32-.74-.52-1.51-1.12-2.3-1.8-.66-.54-1.3-1.01-1.92-1.41-.6-.42-1.2-.75-1.8-.99-.42-.18-.85-.31-1.29-.39-.42-.08-.86-.12-1.32-.12-.7 0-1.36.15-1.98.45-.6.28-1.12.66-1.56 1.14-.44.5-.79 1.09-1.05 1.77-.26.66-.39 1.37-.39 2.13l-4.01-.51c0-1.32.22-2.58.66-3.78.44-1.2 1.06-2.25 1.85-3.15.78-.9 1.72-1.61 2.82-2.13 1.1-.54 2.32-.81 3.66-.81.92 0 1.79.1 2.61.3.84.18 1.65.45 2.43.81.78.36 1.53.8 2.27 1.32.76.52 1.53 1.1 2.31 1.74.52.44 1.02.84 1.5 1.2.48.34.95.63 1.41.87.54.3 1.09.53 1.65.69.56.14 1.14.2 1.74.18.7 0 1.35-.16 1.95-.48a5.31 5.31 0 0 0 1.62-1.29c.43-.52.78-1.13 1.04-1.83.26-.7.39-1.43.39-2.19l4.02.54Zm36.87 0c0 1.32-.22 2.59-.66 3.81a10.56 10.56 0 0 1-1.85 3.24c-.8.94-1.75 1.69-2.85 2.25s-2.32.84-3.66.84c-.94 0-1.82-.09-2.64-.27-.8-.18-1.58-.45-2.34-.81-.78-.36-1.54-.8-2.3-1.32-.74-.52-1.51-1.12-2.31-1.8-.66-.54-1.3-1.01-1.92-1.41-.6-.42-1.2-.75-1.8-.99-.42-.18-.85-.31-1.29-.39-.42-.08-.86-.12-1.32-.12-.7 0-1.36.15-1.98.45-.6.28-1.12.66-1.56 1.14-.43.5-.78 1.09-1.04 1.77-.26.66-.39 1.37-.39 2.13l-4.02-.51c0-1.32.22-2.58.66-3.78.44-1.2 1.06-2.25 1.86-3.15.78-.9 1.72-1.61 2.81-2.13 1.1-.54 2.32-.81 3.66-.81.92 0 1.79.1 2.61.3.84.18 1.65.45 2.43.81.78.36 1.54.8 2.28 1.32.76.52 1.53 1.1 2.3 1.74.52.44 1.02.84 1.5 1.2.48.34.95.63 1.41.87.54.3 1.09.53 1.65.69.56.14 1.14.2 1.74.18.7 0 1.35-.16 1.95-.48a5.31 5.31 0 0 0 1.62-1.29c.44-.52.79-1.13 1.05-1.83.26-.7.39-1.43.39-2.19l4.01.54Zm36.88 0c0 1.32-.22 2.59-.66 3.81-.44 1.22-1.06 2.3-1.86 3.24-.8.94-1.75 1.69-2.85 2.25s-2.32.84-3.66.84c-.94 0-1.82-.09-2.64-.27-.79-.18-1.57-.45-2.33-.81-.78-.36-1.55-.8-2.31-1.32-.74-.52-1.51-1.12-2.31-1.8-.66-.54-1.3-1.01-1.92-1.41-.6-.42-1.2-.75-1.8-.99-.42-.18-.85-.31-1.29-.39-.42-.08-.86-.12-1.32-.12-.69 0-1.35.15-1.97.45-.6.28-1.12.66-1.56 1.14-.44.5-.79 1.09-1.05 1.77-.26.66-.39 1.37-.39 2.13l-4.02-.51c0-1.32.22-2.58.66-3.78.44-1.2 1.06-2.25 1.86-3.15.78-.9 1.72-1.61 2.82-2.13 1.1-.54 2.32-.81 3.65-.81.92 0 1.79.1 2.61.3.84.18 1.65.45 2.43.81.78.36 1.54.8 2.28 1.32.76.52 1.53 1.1 2.31 1.74.52.44 1.02.84 1.5 1.2.48.34.95.63 1.41.87.53.3 1.08.53 1.64.69.56.14 1.14.2 1.74.18.7 0 1.35-.16 1.95-.48a5.31 5.31 0 0 0 1.62-1.29c.44-.52.79-1.13 1.05-1.83.26-.7.39-1.43.39-2.19l4.02.54Zm36.87 0c0 1.32-.22 2.59-.66 3.81-.44 1.22-1.06 2.3-1.86 3.24-.8.94-1.75 1.69-2.85 2.25s-2.32.84-3.66.84c-.93 0-1.81-.09-2.63-.27-.8-.18-1.58-.45-2.34-.81-.78-.36-1.55-.8-2.31-1.32-.74-.52-1.51-1.12-2.31-1.8-.66-.54-1.3-1.01-1.92-1.41-.6-.42-1.2-.75-1.8-.99-.41-.18-.84-.31-1.28-.39-.42-.08-.86-.12-1.32-.12-.7 0-1.36.15-1.98.45-.6.28-1.12.66-1.56 1.14-.44.5-.79 1.09-1.05 1.77-.26.66-.39 1.37-.39 2.13l-4.02-.51c0-1.32.22-2.58.66-3.78.44-1.2 1.06-2.25 1.86-3.15.78-.9 1.72-1.61 2.82-2.13 1.1-.54 2.32-.81 3.66-.81.92 0 1.79.1 2.6.3.84.18 1.65.45 2.43.81.78.36 1.54.8 2.28 1.32.76.52 1.53 1.1 2.31 1.74.52.44 1.02.84 1.5 1.2.48.34.95.63 1.41.87.54.3 1.09.53 1.65.69.56.14 1.14.2 1.73.18.7 0 1.35-.16 1.95-.48a5.31 5.31 0 0 0 1.62-1.29c.44-.52.79-1.13 1.05-1.83.26-.7.39-1.43.39-2.19l4.02.54Zm36.87 0c0 1.32-.22 2.59-.66 3.81-.44 1.22-1.06 2.3-1.86 3.24-.8.94-1.75 1.69-2.85 2.25-1.09.56-2.31.84-3.65.84-.94 0-1.82-.09-2.64-.27-.8-.18-1.58-.45-2.34-.81-.78-.36-1.55-.8-2.31-1.32-.74-.52-1.51-1.12-2.31-1.8a19.81 19.81 0 0 0-1.91-1.41c-.6-.42-1.2-.75-1.8-.99-.42-.18-.85-.31-1.29-.39-.42-.08-.86-.12-1.32-.12-.7 0-1.36.15-1.98.45-.6.28-1.12.66-1.56 1.14-.44.5-.79 1.09-1.05 1.77-.26.66-.39 1.37-.39 2.13l-4.01-.51c0-1.32.22-2.58.66-3.78.44-1.2 1.05-2.25 1.85-3.15.78-.9 1.72-1.61 2.82-2.13 1.1-.54 2.32-.81 3.66-.81.92 0 1.79.1 2.61.3.84.18 1.65.45 2.43.81.78.36 1.53.8 2.27 1.32.76.52 1.53 1.1 2.31 1.74.52.44 1.02.84 1.5 1.2.48.34.95.63 1.41.87.54.3 1.09.53 1.65.69.56.14 1.14.2 1.74.18.7 0 1.35-.16 1.95-.48.62-.32 1.16-.75 1.61-1.29.44-.52.79-1.13 1.05-1.83.26-.7.39-1.43.39-2.19l4.02.54Zm36.87 0c0 1.32-.22 2.59-.66 3.81a10.56 10.56 0 0 1-1.85 3.24c-.8.94-1.75 1.69-2.85 2.25s-2.32.84-3.66.84c-.94 0-1.82-.09-2.64-.27-.8-.18-1.58-.45-2.34-.81-.78-.36-1.55-.8-2.3-1.32-.74-.52-1.51-1.12-2.31-1.8-.66-.54-1.3-1.01-1.92-1.41-.6-.42-1.2-.75-1.8-.99-.42-.18-.85-.31-1.29-.39-.42-.08-.86-.12-1.32-.12-.7 0-1.36.15-1.98.45-.6.28-1.12.66-1.56 1.14-.44.5-.79 1.09-1.04 1.77-.26.66-.39 1.37-.39 2.13l-4.02-.51c0-1.32.22-2.58.66-3.78.44-1.2 1.06-2.25 1.86-3.15.78-.9 1.72-1.61 2.81-2.13 1.1-.54 2.32-.81 3.66-.81.92 0 1.79.1 2.61.3.84.18 1.65.45 2.43.81.78.36 1.54.8 2.28 1.32.76.52 1.53 1.1 2.3 1.74.52.44 1.02.84 1.5 1.2.48.34.95.63 1.41.87.54.3 1.09.53 1.65.69.56.14 1.14.2 1.74.18.7 0 1.35-.16 1.95-.48a5.31 5.31 0 0 0 1.62-1.29c.44-.52.79-1.13 1.05-1.83.26-.7.39-1.43.39-2.19l4.01.54Zm36.88 0c0 1.32-.22 2.59-.66 3.81-.44 1.22-1.06 2.3-1.86 3.24-.8.94-1.75 1.69-2.85 2.25s-2.32.84-3.66.84c-.94 0-1.82-.09-2.64-.27-.8-.18-1.57-.45-2.33-.81-.78-.36-1.55-.8-2.31-1.32-.74-.52-1.51-1.12-2.31-1.8-.66-.54-1.3-1.01-1.92-1.41-.6-.42-1.2-.75-1.8-.99-.42-.18-.85-.31-1.29-.39-.42-.08-.86-.12-1.32-.12-.7 0-1.35.15-1.97.45-.6.28-1.12.66-1.56 1.14-.44.5-.79 1.09-1.05 1.77-.26.66-.39 1.37-.39 2.13l-4.02-.51c0-1.32.22-2.58.66-3.78.44-1.2 1.06-2.25 1.86-3.15.78-.9 1.72-1.61 2.82-2.13 1.1-.54 2.32-.81 3.65-.81.92 0 1.79.1 2.61.3.84.18 1.65.45 2.43.81.78.36 1.54.8 2.28 1.32.76.52 1.53 1.1 2.31 1.74.52.44 1.02.84 1.5 1.2.48.34.95.63 1.4.87.54.3 1.09.53 1.65.69.56.14 1.14.2 1.74.18.7 0 1.35-.16 1.95-.48a5.31 5.31 0 0 0 1.62-1.29c.44-.52.79-1.13 1.05-1.83.26-.7.39-1.43.39-2.19l4.02.54Zm36.87 0c0 1.32-.22 2.59-.66 3.81-.44 1.22-1.06 2.3-1.86 3.24-.8.94-1.75 1.69-2.85 2.25s-2.32.84-3.66.84c-.93 0-1.81-.09-2.63-.27-.8-.18-1.58-.45-2.34-.81-.78-.36-1.55-.8-2.31-1.32-.74-.52-1.51-1.12-2.31-1.8-.66-.54-1.3-1.01-1.92-1.41-.6-.42-1.2-.75-1.8-.99-.41-.18-.84-.31-1.28-.39-.42-.08-.86-.12-1.32-.12-.7 0-1.36.15-1.98.45-.6.28-1.12.66-1.56 1.14-.44.5-.79 1.09-1.05 1.77-.26.66-.39 1.37-.39 2.13l-4.02-.51c0-1.32.22-2.58.66-3.78.44-1.2 1.06-2.25 1.86-3.15.78-.9 1.72-1.61 2.82-2.13 1.1-.54 2.32-.81 3.66-.81.92 0 1.79.1 2.6.3.84.18 1.65.45 2.43.81.78.36 1.54.8 2.28 1.32.76.52 1.53 1.1 2.31 1.74.52.44 1.02.84 1.5 1.2.48.34.95.63 1.41.87.54.3 1.09.53 1.65.69.56.14 1.14.2 1.73.18.7 0 1.35-.16 1.95-.48a5.31 5.31 0 0 0 1.62-1.29c.44-.52.79-1.13 1.05-1.83.26-.7.39-1.43.39-2.19l4.02.54Zm36.87 0c0 1.32-.22 2.59-.66 3.81-.44 1.22-1.06 2.3-1.86 3.24-.8.94-1.75 1.69-2.85 2.25-1.09.56-2.31.84-3.65.84-.94 0-1.82-.09-2.64-.27-.8-.18-1.58-.45-2.34-.81-.78-.36-1.55-.8-2.31-1.32-.74-.52-1.51-1.12-2.31-1.8-.66-.54-1.29-1.01-1.91-1.41-.6-.42-1.2-.75-1.8-.99-.42-.18-.85-.31-1.29-.39-.42-.08-.86-.12-1.32-.12-.7 0-1.36.15-1.98.45-.6.28-1.12.66-1.56 1.14-.44.5-.79 1.09-1.05 1.77-.26.66-.39 1.37-.39 2.13l-4.01-.51c0-1.32.22-2.58.66-3.78.43-1.2 1.05-2.25 1.85-3.15.78-.9 1.72-1.61 2.82-2.13 1.1-.54 2.32-.81 3.66-.81.92 0 1.79.1 2.61.3.84.18 1.65.45 2.43.81.77.36 1.53.8 2.27 1.32.76.52 1.53 1.1 2.31 1.74.52.44 1.02.84 1.5 1.2.48.34.95.63 1.41.87.54.3 1.09.53 1.65.69.56.14 1.14.2 1.74.18.7 0 1.35-.16 1.95-.48.62-.32 1.15-.75 1.61-1.29.44-.52.79-1.13 1.05-1.83.26-.7.39-1.43.39-2.19l4.02.54Zm36.87 0c0 1.32-.22 2.59-.66 3.81-.44 1.22-1.06 2.3-1.86 3.24-.79.94-1.74 1.69-2.84 2.25-1.1.56-2.32.84-3.66.84-.94 0-1.82-.09-2.64-.27-.8-.18-1.58-.45-2.34-.81-.78-.36-1.55-.8-2.31-1.32-.73-.52-1.5-1.12-2.3-1.8-.66-.54-1.3-1.01-1.92-1.41-.6-.42-1.2-.75-1.8-.99-.42-.18-.85-.31-1.29-.39-.42-.08-.86-.12-1.32-.12-.7 0-1.36.15-1.98.45-.6.28-1.12.66-1.56 1.14-.44.5-.79 1.09-1.05 1.77-.25.66-.38 1.37-.38 2.13l-4.02-.51c0-1.32.22-2.58.66-3.78.44-1.2 1.06-2.25 1.86-3.15.78-.9 1.71-1.61 2.81-2.13 1.1-.54 2.32-.81 3.66-.81.92 0 1.79.1 2.61.3.84.18 1.65.45 2.43.81.78.36 1.54.8 2.28 1.32.76.52 1.52 1.1 2.3 1.74.52.44 1.02.84 1.5 1.2.48.34.95.63 1.41.87.54.3 1.09.53 1.65.69.56.14 1.14.2 1.74.18.7 0 1.35-.16 1.95-.48a5.31 5.31 0 0 0 1.62-1.29c.44-.52.79-1.13 1.05-1.83.26-.7.39-1.43.39-2.19l4.01.54Zm36.88 0c0 1.32-.22 2.59-.66 3.81-.44 1.22-1.06 2.3-1.86 3.24-.8.94-1.75 1.69-2.85 2.25s-2.32.84-3.66.84c-.94 0-1.82-.09-2.64-.27-.8-.18-1.57-.45-2.33-.81-.78-.36-1.55-.8-2.31-1.32-.74-.52-1.51-1.12-2.31-1.8-.66-.54-1.3-1.01-1.92-1.41-.6-.42-1.2-.75-1.8-.99-.42-.18-.85-.31-1.29-.39-.42-.08-.86-.12-1.32-.12-.7 0-1.36.15-1.97.45-.6.28-1.12.66-1.56 1.14-.44.5-.79 1.09-1.05 1.77-.26.66-.39 1.37-.39 2.13l-4.02-.51c0-1.32.22-2.58.66-3.78.44-1.2 1.06-2.25 1.86-3.15.78-.9 1.72-1.61 2.82-2.13 1.1-.54 2.31-.81 3.65-.81.92 0 1.79.1 2.61.3.84.18 1.65.45 2.43.81.78.36 1.54.8 2.28 1.32.76.52 1.53 1.1 2.31 1.74.52.44 1.02.84 1.5 1.2.48.34.94.63 1.4.87.54.3 1.09.53 1.65.69.56.14 1.14.2 1.74.18.7 0 1.35-.16 1.95-.48a5.31 5.31 0 0 0 1.62-1.29c.44-.52.79-1.13 1.05-1.83.26-.7.39-1.43.39-2.19l4.02.54Zm36.87 0c0 1.32-.22 2.59-.66 3.81-.44 1.22-1.06 2.3-1.86 3.24-.8.94-1.75 1.69-2.85 2.25s-2.32.84-3.66.84c-.94 0-1.81-.09-2.63-.27-.8-.18-1.58-.45-2.34-.81-.78-.36-1.55-.8-2.31-1.32-.74-.52-1.51-1.12-2.31-1.8-.66-.54-1.3-1.01-1.92-1.41-.6-.42-1.2-.75-1.8-.99-.42-.18-.85-.31-1.28-.39-.42-.08-.86-.12-1.32-.12-.7 0-1.36.15-1.98.45-.6.28-1.12.66-1.56 1.14-.44.5-.79 1.09-1.05 1.77-.26.66-.39 1.37-.39 2.13l-4.02-.51c0-1.32.22-2.58.66-3.78.44-1.2 1.06-2.25 1.86-3.15.78-.9 1.72-1.61 2.82-2.13 1.1-.54 2.32-.81 3.66-.81.92 0 1.78.1 2.6.3.84.18 1.65.45 2.43.81.78.36 1.54.8 2.28 1.32.76.52 1.53 1.1 2.31 1.74.52.44 1.02.84 1.5 1.2.48.34.95.63 1.41.87.54.3 1.09.53 1.65.69.56.14 1.13.2 1.73.18.7 0 1.35-.16 1.95-.48a5.31 5.31 0 0 0 1.62-1.29c.44-.52.79-1.13 1.05-1.83.26-.7.39-1.43.39-2.19l4.02.54Zm36.87 0c0 1.32-.22 2.59-.66 3.81-.44 1.22-1.06 2.3-1.86 3.24-.8.94-1.75 1.69-2.85 2.25s-2.31.84-3.65.84c-.94 0-1.82-.09-2.64-.27-.8-.18-1.58-.45-2.34-.81-.78-.36-1.55-.8-2.31-1.32-.74-.52-1.51-1.12-2.31-1.8-.66-.54-1.3-1.01-1.91-1.41-.6-.42-1.2-.75-1.8-.99-.42-.18-.85-.31-1.29-.39-.42-.08-.86-.12-1.32-.12-.7 0-1.36.15-1.98.45-.6.28-1.12.66-1.56 1.14-.44.5-.79 1.09-1.05 1.77-.26.66-.39 1.37-.39 2.13l-4.01-.51c0-1.32.22-2.58.65-3.78.44-1.2 1.06-2.25 1.86-3.15.78-.9 1.72-1.61 2.82-2.13 1.1-.54 2.32-.81 3.66-.81.92 0 1.79.1 2.61.3.84.18 1.65.45 2.42.81.78.36 1.54.8 2.28 1.32.76.52 1.53 1.1 2.31 1.74.52.44 1.02.84 1.5 1.2.48.34.95.63 1.41.87.54.3 1.09.53 1.65.69.56.14 1.14.2 1.74.18.7 0 1.35-.16 1.95-.48.61-.32 1.15-.75 1.61-1.29.44-.52.79-1.13 1.05-1.83.26-.7.39-1.43.39-2.19l4.02.54Z" />
	<path fill="#AFF2E2" d="M219.456 71.444c0-1.458.108-2.828.324-4.11a22.57 22.57 0 0 1 .909-3.568 18.538 18.538 0 0 1 1.324-2.994 17.43 17.43 0 0 1 1.617-2.388 11.635 11.635 0 0 1 1.741-1.753c.605-.486 1.191-.858 1.755-1.117l.832 2.358c-.575.444-1.15 1.044-1.725 1.799-.575.745-1.094 1.675-1.556 2.792-.451 1.106-.821 2.4-1.108 3.878-.288 1.479-.432 3.17-.432 5.072v.403c0 1.913.144 3.61.432 5.088.287 1.478.657 2.771 1.108 3.878.462 1.116.981 2.052 1.556 2.807.575.755 1.15 1.355 1.725 1.8l-.832 2.326c-.564-.258-1.15-.63-1.755-1.117a12.291 12.291 0 0 1-1.741-1.768 16.644 16.644 0 0 1-1.617-2.373c-.503-.9-.945-1.893-1.324-2.978a23.165 23.165 0 0 1-.909-3.568 24.852 24.852 0 0 1-.324-4.126v-.341Zm27.649.962h-12.83v-3.49h12.83v3.49Zm12.185-.621c0 1.417-.113 2.761-.339 4.033a22.238 22.238 0 0 1-.924 3.537 17.77 17.77 0 0 1-1.371 2.993 16.174 16.174 0 0 1-1.648 2.42 12.47 12.47 0 0 1-1.802 1.815c-.616.496-1.216.874-1.801 1.132l-.817-2.327c.565-.434 1.135-1.029 1.71-1.783.575-.755 1.093-1.686 1.555-2.792.462-1.107.837-2.405 1.125-3.894.287-1.489.431-3.19.431-5.103v-.403c0-1.903-.149-3.599-.447-5.088-.298-1.489-.677-2.792-1.14-3.909-.462-1.116-.98-2.052-1.555-2.807-.565-.755-1.124-1.35-1.679-1.784l.817-2.31c.585.258 1.185.635 1.801 1.131a12.47 12.47 0 0 1 1.802 1.815c.586.703 1.135 1.51 1.648 2.42.524.9.981 1.897 1.371 2.993.39 1.097.698 2.28.924 3.553.226 1.261.339 2.6.339 4.017v.341Zm8.72 6.345c0-.404.067-.776.2-1.118.134-.351.329-.651.585-.9.257-.258.57-.46.94-.604a3.191 3.191 0 0 1 1.247-.233 3.2 3.2 0 0 1 1.248.233c.369.145.678.346.924.605.257.248.452.548.585.9.144.34.216.713.216 1.116 0 .393-.072.76-.216 1.102a2.603 2.603 0 0 1-.585.9 2.636 2.636 0 0 1-.924.588 3.4 3.4 0 0 1-1.248.218c-.462 0-.878-.073-1.247-.218a2.803 2.803 0 0 1-.94-.589 2.632 2.632 0 0 1-.585-.9 3.006 3.006 0 0 1-.2-1.1Zm15.789 0c0-.404.067-.776.2-1.118.134-.351.329-.651.586-.9a2.67 2.67 0 0 1 .939-.604 3.2 3.2 0 0 1 1.248-.233c.462 0 .877.078 1.247.233.37.145.678.346.924.605.257.248.452.548.585.9.144.34.216.713.216 1.116 0 .393-.072.76-.216 1.102a2.603 2.603 0 0 1-.585.9 2.627 2.627 0 0 1-.924.588c-.37.145-.785.218-1.247.218a3.4 3.4 0 0 1-1.248-.218 2.789 2.789 0 0 1-.939-.589 2.62 2.62 0 0 1-.586-.9 3.006 3.006 0 0 1-.2-1.1Zm14.603-6.686c0-1.458.108-2.828.324-4.11a22.57 22.57 0 0 1 .909-3.568 18.538 18.538 0 0 1 1.324-2.994 17.43 17.43 0 0 1 1.617-2.388 11.678 11.678 0 0 1 1.74-1.753c.606-.486 1.191-.858 1.756-1.117l.832 2.358c-.575.444-1.15 1.044-1.725 1.799-.575.745-1.094 1.675-1.556 2.792-.451 1.106-.821 2.4-1.108 3.878-.288 1.479-.432 3.17-.432 5.072v.403c0 1.913.144 3.61.432 5.088.287 1.478.657 2.771 1.108 3.878.462 1.116.981 2.052 1.556 2.807.575.755 1.15 1.355 1.725 1.8l-.832 2.326c-.565-.258-1.15-.63-1.756-1.117a12.339 12.339 0 0 1-1.74-1.768 16.644 16.644 0 0 1-1.617-2.373c-.503-.9-.945-1.893-1.324-2.978a23.165 23.165 0 0 1-.909-3.568 24.852 24.852 0 0 1-.324-4.126v-.341Zm27.649.962h-12.83v-3.49h12.83v3.49Zm12.185-.621c0 1.417-.113 2.761-.339 4.033a22.238 22.238 0 0 1-.924 3.537 17.77 17.77 0 0 1-1.371 2.993 16.174 16.174 0 0 1-1.648 2.42 12.47 12.47 0 0 1-1.802 1.815c-.616.496-1.216.874-1.802 1.132l-.816-2.327c.565-.434 1.135-1.029 1.71-1.783.575-.755 1.093-1.686 1.555-2.792.462-1.107.837-2.405 1.125-3.894.287-1.489.431-3.19.431-5.103v-.403c0-1.903-.149-3.599-.447-5.088-.298-1.489-.678-2.792-1.14-3.909-.462-1.116-.98-2.052-1.555-2.807-.565-.755-1.124-1.35-1.679-1.784l.816-2.31c.586.258 1.186.635 1.802 1.131a12.47 12.47 0 0 1 1.802 1.815c.586.703 1.135 1.51 1.648 2.42.524.9.981 1.897 1.371 2.993.39 1.097.698 2.28.924 3.553.226 1.261.339 2.6.339 4.017v.341ZM222.301 8.547c0-1.22.174-2.348.523-3.382.349-1.044.858-1.949 1.525-2.714a7.19 7.19 0 0 1 2.464-1.8c.975-.434 2.089-.651 3.342-.651 1.253 0 2.367.217 3.342.651a6.987 6.987 0 0 1 2.464 1.8c.678.765 1.191 1.67 1.54 2.714.35 1.034.524 2.161.524 3.382v.325c0 1.23-.174 2.368-.524 3.413a7.902 7.902 0 0 1-1.524 2.699 7.005 7.005 0 0 1-2.464 1.799c-.976.424-2.085.636-3.327.636-1.253 0-2.372-.212-3.358-.636a7.154 7.154 0 0 1-2.479-1.8 7.904 7.904 0 0 1-1.525-2.698c-.349-1.045-.523-2.182-.523-3.413v-.325Zm4.281.325c0 .703.067 1.365.2 1.986a5.13 5.13 0 0 0 .632 1.613 3.28 3.28 0 0 0 1.109 1.086c.462.268 1.016.403 1.663.403.626 0 1.165-.135 1.617-.403.452-.27.816-.631 1.094-1.086a5.154 5.154 0 0 0 .631-1.613c.133-.62.2-1.283.2-1.986v-.325c0-.683-.067-1.33-.2-1.94a5.154 5.154 0 0 0-.631-1.612 3.116 3.116 0 0 0-1.094-1.102c-.452-.269-1.001-.403-1.648-.403-.636 0-1.181.134-1.632.403a3.232 3.232 0 0 0-1.109 1.102 5.13 5.13 0 0 0-.632 1.613c-.133.61-.2 1.256-.2 1.939v.325Z" />
	<path fill="red" d="M265.1 14.596c0-.403.067-.776.2-1.117.134-.351.329-.651.586-.9.256-.258.569-.46.939-.604a3.2 3.2 0 0 1 1.248-.233c.462 0 .877.077 1.247.232.37.145.678.347.924.605.257.249.452.548.585.9.144.341.216.714.216 1.117a2.8 2.8 0 0 1-.216 1.101 2.603 2.603 0 0 1-.585.9 2.628 2.628 0 0 1-.924.59c-.37.144-.785.216-1.247.216-.462 0-.878-.072-1.248-.217a2.79 2.79 0 0 1-.939-.59 2.62 2.62 0 0 1-.586-.899 3.006 3.006 0 0 1-.2-1.101Zm18.944 0c0-.403.066-.776.2-1.117.133-.351.328-.651.585-.9.257-.258.57-.46.939-.604a3.2 3.2 0 0 1 1.248-.233c.462 0 .878.077 1.247.232.37.145.678.347.925.605.256.249.451.548.585.9.143.341.215.714.215 1.117 0 .393-.072.76-.215 1.101a2.632 2.632 0 0 1-.585.9 2.642 2.642 0 0 1-.925.59 3.394 3.394 0 0 1-1.247.216c-.462 0-.878-.072-1.248-.217a2.81 2.81 0 0 1-.939-.59 2.603 2.603 0 0 1-.585-.899 2.986 2.986 0 0 1-.2-1.101Z" />
	<path fill="#AFF2E2" d="M317.017 8.547c0-1.22.175-2.348.524-3.382.349-1.044.857-1.949 1.525-2.714a7.18 7.18 0 0 1 2.464-1.8c.975-.434 2.089-.651 3.342-.651 1.252 0 2.366.217 3.342.651a6.996 6.996 0 0 1 2.464 1.8c.678.765 1.191 1.67 1.54 2.714.349 1.034.524 2.161.524 3.382v.325c0 1.23-.175 2.368-.524 3.413a7.888 7.888 0 0 1-1.525 2.699 6.987 6.987 0 0 1-2.464 1.799c-.975.424-2.084.636-3.326.636-1.253 0-2.372-.212-3.358-.636a7.145 7.145 0 0 1-2.479-1.8 7.888 7.888 0 0 1-1.525-2.698c-.349-1.045-.524-2.182-.524-3.413v-.325Zm4.282.325c0 .703.066 1.365.2 1.986a5.13 5.13 0 0 0 .631 1.613 3.29 3.29 0 0 0 1.109 1.086c.462.268 1.017.403 1.664.403.626 0 1.165-.135 1.617-.403.451-.27.816-.631 1.093-1.086a5.13 5.13 0 0 0 .632-1.613c.133-.62.2-1.283.2-1.986v-.325c0-.683-.067-1.33-.2-1.94a5.13 5.13 0 0 0-.632-1.612 3.113 3.113 0 0 0-1.093-1.102c-.452-.269-1.001-.403-1.648-.403-.637 0-1.181.134-1.633.403a3.24 3.24 0 0 0-1.109 1.102 5.13 5.13 0 0 0-.631 1.613c-.134.61-.2 1.256-.2 1.939v.325Z" />
	<path fill="#E6FF55" d="M231.603 55.22h-2.68V26.275h2.68v28.943Zm11.751-28.944h4.004l8.394 24.523h-4.005l-8.393-24.523Zm22.624 24.523h-3.989l8.394-24.523h3.989l-8.394 24.523Zm15.263-24.523h4.004l8.393 24.523h-4.004l-8.393-24.523Zm22.624 24.523h-3.989l8.393-24.523h3.989l-8.393 24.523Zm22.455 4.421h-2.68V26.275h2.68v28.943Z" />
	<path fill="#AFF2E2" d="M223.399 103.211c0-1.458.108-2.829.324-4.11.225-1.293.528-2.483.908-3.568a18.61 18.61 0 0 1 1.325-2.994c.513-.9 1.052-1.696 1.617-2.389a11.679 11.679 0 0 1 1.74-1.753c.606-.486 1.191-.858 1.756-1.116l.832 2.357c-.575.445-1.15 1.045-1.725 1.8-.575.744-1.094 1.675-1.556 2.792-.452 1.106-.821 2.399-1.109 3.877-.287 1.48-.431 3.17-.431 5.073v.403c0 1.913.144 3.609.431 5.087.288 1.479.657 2.772 1.109 3.878.462 1.117.981 2.053 1.556 2.808.575.755 1.15 1.354 1.725 1.799l-.832 2.327c-.565-.259-1.15-.631-1.756-1.117a12.379 12.379 0 0 1-1.74-1.768 16.66 16.66 0 0 1-1.617-2.374 18.818 18.818 0 0 1-1.325-2.978 23.047 23.047 0 0 1-.908-3.567 24.855 24.855 0 0 1-.324-4.126v-.341Zm36.27-13.402h4.004l8.394 24.523h-4.005l-8.393-24.523Zm32.866 10.92c0 .837-.118 1.613-.355 2.326a5.512 5.512 0 0 1-.97 1.846 4.438 4.438 0 0 1-1.494 1.195 4.287 4.287 0 0 1-1.925.434c-.452 0-.878-.041-1.278-.124a6.065 6.065 0 0 1-1.155-.372 7.348 7.348 0 0 1-1.125-.652 10.723 10.723 0 0 1-1.139-.931 7.608 7.608 0 0 0-1.448-.961 3.167 3.167 0 0 0-1.417-.341c-.277 0-.544.072-.801.217-.256.134-.487.32-.693.558a2.895 2.895 0 0 0-.477.791c-.113.3-.17.61-.17.931l-2.772-.341c0-.838.113-1.603.339-2.296.226-.703.544-1.303.955-1.799.421-.507.919-.9 1.494-1.179a4.41 4.41 0 0 1 1.925-.419c.893 0 1.715.176 2.464.527.76.352 1.52.864 2.28 1.536.503.434.98.76 1.432.977.462.217.924.326 1.386.326.277 0 .539-.072.785-.217.247-.145.462-.336.647-.574.185-.238.334-.507.447-.807.113-.31.169-.625.169-.946l2.896.295Zm18.943 0c0 .837-.118 1.613-.354 2.326a5.548 5.548 0 0 1-.97 1.846 4.438 4.438 0 0 1-1.494 1.195 4.292 4.292 0 0 1-1.926.434c-.451 0-.877-.041-1.278-.124a6.065 6.065 0 0 1-1.155-.372 7.292 7.292 0 0 1-1.124-.652 10.63 10.63 0 0 1-1.14-.931 7.608 7.608 0 0 0-1.448-.961 3.166 3.166 0 0 0-1.416-.341c-.278 0-.545.072-.801.217-.257.134-.488.32-.693.558a2.897 2.897 0 0 0-.478.791c-.113.3-.169.61-.169.931l-2.772-.341c0-.838.113-1.603.338-2.296.226-.703.545-1.303.955-1.799.421-.507.919-.9 1.494-1.179a4.41 4.41 0 0 1 1.925-.419 5.74 5.74 0 0 1 2.465.527c.759.352 1.519.864 2.279 1.536.503.434.98.76 1.432.977.462.217.924.326 1.386.326.277 0 .539-.072.786-.217.246-.145.462-.336.647-.574.184-.238.333-.507.446-.807.113-.31.17-.625.17-.946l2.895.295Zm18.943 0c0 .837-.118 1.613-.354 2.326a5.53 5.53 0 0 1-.97 1.846 4.438 4.438 0 0 1-1.494 1.195 4.287 4.287 0 0 1-1.925.434c-.452 0-.878-.041-1.278-.124a6.052 6.052 0 0 1-1.156-.372 7.387 7.387 0 0 1-1.124-.652c-.37-.258-.749-.569-1.14-.931a7.603 7.603 0 0 0-1.447-.961 3.17 3.17 0 0 0-1.417-.341c-.277 0-.544.072-.801.217-.257.134-.488.32-.693.558a2.895 2.895 0 0 0-.477.791c-.113.3-.17.61-.17.931l-2.772-.341c0-.838.113-1.603.339-2.296.226-.703.544-1.303.955-1.799.421-.507.919-.9 1.493-1.179a4.414 4.414 0 0 1 1.926-.419 5.74 5.74 0 0 1 2.464.527c.76.352 1.519.864 2.279 1.536.503.434.981.76 1.432.977.463.217.925.326 1.387.326.277 0 .539-.072.785-.217.246-.145.462-.336.647-.574.185-.238.334-.507.447-.807.112-.31.169-.625.169-.946l2.895.295Zm18.944 0c0 .837-.118 1.613-.355 2.326a5.512 5.512 0 0 1-.97 1.846 4.429 4.429 0 0 1-1.494 1.195 4.287 4.287 0 0 1-1.925.434c-.452 0-.878-.041-1.278-.124a6.065 6.065 0 0 1-1.155-.372 7.348 7.348 0 0 1-1.125-.652 10.723 10.723 0 0 1-1.139-.931 7.608 7.608 0 0 0-1.448-.961 3.167 3.167 0 0 0-1.417-.341c-.277 0-.544.072-.801.217-.256.134-.487.32-.693.558a2.895 2.895 0 0 0-.477.791c-.113.3-.17.61-.17.931l-2.772-.341c0-.838.113-1.603.339-2.296.226-.703.544-1.303.955-1.799.421-.507.919-.9 1.494-1.179a4.41 4.41 0 0 1 1.925-.419c.893 0 1.715.176 2.464.527.76.352 1.52.864 2.28 1.536.503.434.98.76 1.432.977.462.217.924.326 1.386.326.277 0 .539-.072.785-.217.247-.145.462-.336.647-.574.185-.238.334-.507.447-.807.113-.31.169-.625.169-.946l2.896.295Zm2.911 3.118c0-1.221.174-2.348.523-3.382.349-1.044.857-1.95 1.525-2.714a7.19 7.19 0 0 1 2.464-1.8c.975-.434 2.089-.651 3.342-.651 1.253 0 2.367.217 3.342.651a6.996 6.996 0 0 1 2.464 1.8c.678.765 1.191 1.67 1.54 2.714.349 1.034.524 2.161.524 3.382v.325c0 1.231-.175 2.368-.524 3.413a7.91 7.91 0 0 1-1.524 2.699 6.998 6.998 0 0 1-2.465 1.799c-.975.424-2.084.636-3.326.636-1.253 0-2.372-.212-3.358-.636a7.152 7.152 0 0 1-2.479-1.799 7.896 7.896 0 0 1-1.525-2.699c-.349-1.045-.523-2.182-.523-3.413v-.325Zm4.281.325c0 .703.067 1.365.2 1.986.134.61.344 1.148.632 1.613a3.28 3.28 0 0 0 1.109 1.086c.462.268 1.016.403 1.663.403.626 0 1.165-.135 1.617-.403a3.148 3.148 0 0 0 1.093-1.086 5.128 5.128 0 0 0 .632-1.613 9.47 9.47 0 0 0 .2-1.986v-.325c0-.683-.067-1.329-.2-1.939a5.128 5.128 0 0 0-.632-1.613 3.103 3.103 0 0 0-1.093-1.102c-.452-.269-1.001-.403-1.648-.403-.637 0-1.181.134-1.632.403a3.23 3.23 0 0 0-1.109 1.102 5.128 5.128 0 0 0-.632 1.613c-.133.61-.2 1.256-.2 1.939v.325Zm-138.312 66.393h-3.45l4.913-11.928h3.096l4.897 11.928h-3.434l-2.711-7.042-.323-1.303-.324 1.303-2.664 7.042ZM247.63 173h-12.829v-3.49h12.829V173Zm8.502-2.435h-3.45l4.913-11.928h3.095l4.898 11.928h-3.435l-2.71-7.042-.324-1.303-.323 1.303-2.664 7.042Zm37.886 0h-3.45l4.913-11.928h3.096l4.898 11.928h-3.435l-2.71-7.042-.324-1.303-.323 1.303-2.665 7.042ZM323.404 173h-12.83v-3.49h12.83V173Zm8.501-2.435h-3.45l4.913-11.928h3.096l4.897 11.928h-3.434l-2.711-7.042-.323-1.303-.324 1.303-2.664 7.042ZM205 134.977c0-1.458.108-2.828.323-4.11a22.57 22.57 0 0 1 .909-3.568 18.51 18.51 0 0 1 1.325-2.993c.513-.9 1.052-1.696 1.617-2.389a11.596 11.596 0 0 1 1.74-1.753c.606-.486 1.191-.858 1.756-1.117l.831 2.358c-.575.445-1.15 1.044-1.725 1.799-.574.745-1.093 1.676-1.555 2.792-.452 1.107-.821 2.399-1.109 3.878-.287 1.479-.431 3.17-.431 5.072v.403c0 1.914.144 3.609.431 5.088.288 1.479.657 2.771 1.109 3.878.462 1.117.981 2.053 1.555 2.807.575.755 1.15 1.355 1.725 1.8l-.831 2.326c-.565-.258-1.15-.63-1.756-1.116a12.232 12.232 0 0 1-1.74-1.769 16.59 16.59 0 0 1-1.617-2.373c-.504-.9-.945-1.892-1.325-2.978a23.144 23.144 0 0 1-.909-3.568 24.958 24.958 0 0 1-.323-4.126v-.341Zm16.975 6.685c0-.403.067-.775.2-1.116.134-.352.329-.652.586-.9.256-.258.569-.46.939-.605.37-.155.785-.233 1.248-.233.462 0 .877.078 1.247.233.37.145.678.347.924.605.257.248.452.548.585.9.144.341.216.713.216 1.116 0 .393-.072.761-.216 1.102a2.598 2.598 0 0 1-.585.899 2.621 2.621 0 0 1-.924.59c-.37.145-.785.217-1.247.217-.463 0-.878-.072-1.248-.217a2.782 2.782 0 0 1-.939-.59 2.615 2.615 0 0 1-.586-.899 3.009 3.009 0 0 1-.2-1.102Zm11.77-10.438v-4.173l13.861 5.677v3.521l-13.861 5.693v-4.188l8.824-2.978.94-.311-.924-.31-8.84-2.931Zm31.563-2.12h2.669l5.596 16.348h-2.67l-5.595-16.348Zm16.922 11.106c0-.29-.044-.545-.133-.766a1.633 1.633 0 0 0-.411-.62 2.748 2.748 0 0 0-.739-.507 8.413 8.413 0 0 0-1.099-.465 19.074 19.074 0 0 1-1.889-.786 6.17 6.17 0 0 1-1.458-.962 3.901 3.901 0 0 1-.924-1.272c-.219-.489-.329-1.068-.329-1.737 0-.586.1-1.12.298-1.603.199-.489.479-.913.842-1.271a4.199 4.199 0 0 1 1.314-.869 5.739 5.739 0 0 1 1.715-.424v-2.223h1.643v2.244c.616.082 1.17.251 1.663.506.493.255.911.59 1.253 1.003.349.407.616.89.801 1.448.191.552.287 1.172.287 1.861h-2.854c0-.834-.188-1.465-.565-1.892-.376-.434-.886-.651-1.53-.651-.349 0-.653.048-.914.144a1.61 1.61 0 0 0-.996.983 2.36 2.36 0 0 0-.112.744c0 .269.037.51.112.724.083.207.216.4.401.579.192.179.441.352.749.517.308.159.692.321 1.15.486.692.262 1.318.534 1.879.817.562.276 1.041.6 1.438.972.404.366.712.793.924 1.282.219.483.328 1.055.328 1.717 0 .607-.099 1.155-.297 1.644-.199.483-.483.9-.853 1.251a4.234 4.234 0 0 1-1.334.848 6.358 6.358 0 0 1-1.746.404v2.026h-1.632v-2.026a6.813 6.813 0 0 1-1.694-.383 4.512 4.512 0 0 1-1.458-.889 4.253 4.253 0 0 1-1.007-1.458c-.253-.593-.38-1.303-.38-2.131h2.865c0 .497.072.914.216 1.252.143.331.328.596.554.796.233.193.496.331.791.414.294.082.595.124.903.124.733 0 1.287-.173 1.664-.517.376-.345.564-.79.564-1.334Zm6.584 5.242h-2.66l5.596-16.348h2.659l-5.595 16.348Zm23.727-11.328-1.048.388 1.048.372 8.439 2.839v4.203l-13.629-5.692v-3.49l13.629-5.693v4.188l-8.439 2.885Zm14.695 7.538c0-.403.067-.775.201-1.116a2.42 2.42 0 0 1 .585-.9 2.7 2.7 0 0 1 .939-.605c.37-.155.786-.233 1.248-.233.462 0 .878.078 1.247.233.37.145.678.347.924.605.257.248.452.548.586.9.143.341.215.713.215 1.116 0 .393-.072.761-.215 1.102a2.615 2.615 0 0 1-.586.899 2.621 2.621 0 0 1-.924.59 3.388 3.388 0 0 1-1.247.217c-.462 0-.878-.072-1.248-.217a2.802 2.802 0 0 1-.939-.59 2.598 2.598 0 0 1-.585-.899 2.989 2.989 0 0 1-.201-1.102Zm22.859-6.344c0 1.417-.113 2.761-.339 4.033a22.228 22.228 0 0 1-.924 3.537 17.792 17.792 0 0 1-1.371 2.994 16.289 16.289 0 0 1-1.648 2.419 12.432 12.432 0 0 1-1.802 1.815c-.616.496-1.216.874-1.802 1.132l-.816-2.326c.565-.435 1.135-1.029 1.71-1.784.575-.755 1.093-1.686 1.555-2.792.462-1.107.837-2.404 1.124-3.893.288-1.489.432-3.19.432-5.104v-.403c0-1.902-.149-3.598-.447-5.087-.298-1.489-.678-2.792-1.14-3.909-.462-1.117-.98-2.053-1.555-2.808-.565-.755-1.124-1.349-1.679-1.783l.816-2.312c.586.259 1.186.636 1.802 1.133a12.472 12.472 0 0 1 1.802 1.814 16.3 16.3 0 0 1 1.648 2.42c.524.9.981 1.898 1.371 2.994.39 1.096.698 2.28.924 3.552.226 1.261.339 2.601.339 4.017v.341Zm-203.392 54.073c0 2.042-.471 4.125-1.415 6.249-.944 2.123-2.219 3.91-3.825 5.36L138 199.07a14.284 14.284 0 0 0 2.048-4.564c.401-1.613.602-3.287.602-5.023V184h6.053v5.391Zm49.962 5.942h-27.616v-4.625h27.616v4.625Zm37.043 0h-27.616v-4.625h27.616v4.625Zm37.042 0h-27.616v-4.625h27.616v4.625Zm37.043 0h-27.617v-4.625h27.617v4.625Zm37.042 0h-27.616v-4.625h27.616v4.625Zm37.042 0h-27.616v-4.625h27.616v4.625ZM406 189.391c0 2.042-.472 4.125-1.415 6.249-.944 2.123-2.219 3.91-3.825 5.36l-3.463-1.93a14.281 14.281 0 0 0 2.047-4.564c.402-1.613.603-3.287.603-5.023V184H406v5.391Z" />
	<path fill="#5D9086" d="M279.172 236.407c0 2.191-.177 4.251-.53 6.182-.337 1.93-.797 3.715-1.38 5.354-.583 1.655-1.258 3.157-2.025 4.505-.751 1.363-1.541 2.574-2.37 3.631-.843 1.072-1.695 1.976-2.554 2.712-.843.751-1.649 1.34-2.416 1.769l-.897-2.597c.644-.475 1.296-1.087 1.956-1.838a18.622 18.622 0 0 0 1.886-2.597 30.153 30.153 0 0 0 1.634-3.378 23.306 23.306 0 0 0 1.312-4.091c.352-1.379.621-2.865.805-4.459.199-1.608.299-3.324.299-5.147v-.322c0-2.069-.13-3.945-.391-5.631-.246-1.685-.522-3.118-.828-4.297-.445-1.686-.982-3.195-1.611-4.528-.629-1.348-1.273-2.52-1.933-3.516a15.268 15.268 0 0 0-1.564-2.045 14.307 14.307 0 0 0-1.565-1.517l.897-2.597c.767.429 1.58 1.019 2.439 1.77.859.75 1.703 1.654 2.531 2.711a28.138 28.138 0 0 1 2.416 3.632c.752 1.332 1.411 2.834 1.979 4.504a37.178 37.178 0 0 1 1.357 5.24c.369 1.869.553 3.976.553 6.32v.23Zm-11.321 56.25c0-2.191.169-4.252.507-6.182.352-1.931.82-3.723 1.403-5.378a30.422 30.422 0 0 1 2.002-4.505c.767-1.363 1.572-2.574 2.416-3.631.828-1.057 1.664-1.961 2.508-2.712.843-.75 1.649-1.34 2.416-1.769l.897 2.804c-.491.367-.989.812-1.496 1.333a19.05 19.05 0 0 0-1.449 1.746c-.706.996-1.381 2.168-2.025 3.516a25.13 25.13 0 0 0-1.611 4.39c-.414 1.44-.736 3.026-.966 4.757a42.487 42.487 0 0 0-.345 5.585v.321c0 1.916.107 3.708.322 5.378.215 1.67.506 3.21.874 4.619a31.258 31.258 0 0 0 1.381 3.953 28.597 28.597 0 0 0 1.634 3.287 20.089 20.089 0 0 0 1.794 2.436 15.02 15.02 0 0 0 1.887 1.838l-.897 2.597c-.767-.429-1.58-1.019-2.439-1.769-.844-.736-1.68-1.64-2.508-2.712-.844-1.057-1.649-2.268-2.416-3.631-.752-1.349-1.411-2.85-1.979-4.505-.583-1.639-1.051-3.424-1.403-5.354-.338-1.931-.507-3.992-.507-6.183v-.229Zm11.321 56.709c0 2.191-.177 4.252-.53 6.182-.337 1.931-.797 3.716-1.38 5.355-.583 1.655-1.258 3.156-2.025 4.505-.751 1.363-1.541 2.574-2.37 3.631-.843 1.072-1.695 1.976-2.554 2.712-.843.75-1.649 1.34-2.416 1.769l-.897-2.597c.644-.475 1.296-1.088 1.956-1.838a18.682 18.682 0 0 0 1.886-2.597 30.088 30.088 0 0 0 1.634-3.379 23.295 23.295 0 0 0 1.312-4.09c.352-1.379.621-2.865.805-4.459.199-1.609.299-3.324.299-5.148v-.321c0-2.069-.13-3.946-.391-5.631-.246-1.685-.522-3.118-.828-4.298-.445-1.685-.982-3.194-1.611-4.527-.629-1.348-1.273-2.52-1.933-3.516a15.281 15.281 0 0 0-1.564-2.046 14.292 14.292 0 0 0-1.565-1.516l.897-2.597c.767.429 1.58 1.019 2.439 1.769.859.751 1.703 1.655 2.531 2.712a28.125 28.125 0 0 1 2.416 3.631c.752 1.333 1.411 2.835 1.979 4.505a37.142 37.142 0 0 1 1.357 5.24c.369 1.869.553 3.975.553 6.32v.229Zm-11.321 56.25c0-2.191.169-4.251.507-6.182.352-1.93.82-3.723 1.403-5.377a30.422 30.422 0 0 1 2.002-4.505c.767-1.363 1.572-2.574 2.416-3.631.828-1.057 1.664-1.961 2.508-2.712.843-.751 1.649-1.34 2.416-1.769l.897 2.803c-.491.368-.989.812-1.496 1.333-.49.521-.974 1.103-1.449 1.747-.706.996-1.381 2.168-2.025 3.516a25.1 25.1 0 0 0-1.611 4.39c-.414 1.44-.736 3.026-.966 4.757a42.482 42.482 0 0 0-.345 5.584v.322c0 1.915.107 3.708.322 5.378.215 1.67.506 3.21.874 4.619a31.258 31.258 0 0 0 1.381 3.953 28.497 28.497 0 0 0 1.634 3.286c.582.92 1.181 1.732 1.794 2.437a15.09 15.09 0 0 0 1.887 1.838l-.897 2.597c-.767-.429-1.58-1.019-2.439-1.77-.844-.735-1.68-1.639-2.508-2.711a27.161 27.161 0 0 1-2.416-3.632c-.752-1.348-1.411-2.849-1.979-4.504-.583-1.639-1.051-3.424-1.403-5.355-.338-1.93-.507-3.991-.507-6.182v-.23Z" />
	<path fill="#5F82FF" d="M-191.065 211.86c0 1.32-.22 2.59-.66 3.81-.44 1.22-1.059 2.3-1.859 3.24a9.157 9.157 0 0 1-2.847 2.25c-1.1.56-2.319.84-3.658.84-.939 0-1.818-.09-2.638-.27-.799-.18-1.578-.45-2.338-.81-.779-.36-1.549-.8-2.308-1.32-.74-.52-1.509-1.12-2.308-1.8-.66-.54-1.299-1.01-1.919-1.41-.6-.42-1.199-.75-1.799-.99a5.958 5.958 0 0 0-1.289-.39 7.025 7.025 0 0 0-1.319-.12c-.699 0-1.359.15-1.978.45-.6.28-1.119.66-1.559 1.14-.44.5-.789 1.09-1.049 1.77-.26.66-.39 1.37-.39 2.13l-4.017-.51c0-1.32.22-2.58.66-3.78a9.724 9.724 0 0 1 1.858-3.15c.78-.9 1.719-1.61 2.818-2.13 1.099-.54 2.318-.81 3.657-.81.92 0 1.789.1 2.608.3.84.18 1.649.45 2.429.81.779.36 1.538.8 2.278 1.32.759.52 1.529 1.1 2.308 1.74.52.44 1.019.84 1.499 1.2.48.34.949.63 1.409.87.539.3 1.089.53 1.649.69.559.14 1.139.2 1.738.18.7 0 1.349-.16 1.949-.48a5.319 5.319 0 0 0 1.619-1.29 6.1 6.1 0 0 0 1.049-1.83c.26-.7.39-1.43.39-2.19l4.017.54Zm36.872 0c0 1.32-.22 2.59-.659 3.81-.44 1.22-1.06 2.3-1.859 3.24a9.16 9.16 0 0 1-2.848 2.25c-1.099.56-2.318.84-3.657.84-.94 0-1.819-.09-2.638-.27-.8-.18-1.579-.45-2.339-.81a15.91 15.91 0 0 1-2.308-1.32 31.962 31.962 0 0 1-2.308-1.8c-.66-.54-1.299-1.01-1.919-1.41a8.927 8.927 0 0 0-1.798-.99c-.42-.18-.85-.31-1.289-.39a7.04 7.04 0 0 0-1.319-.12c-.7 0-1.359.15-1.979.45-.599.28-1.119.66-1.559 1.14-.439.5-.789 1.09-1.049 1.77-.26.66-.39 1.37-.39 2.13l-4.017-.51c0-1.32.22-2.58.66-3.78a9.726 9.726 0 0 1 1.859-3.15 8.473 8.473 0 0 1 2.817-2.13c1.1-.54 2.319-.81 3.658-.81.919 0 1.788.1 2.608.3.839.18 1.648.45 2.428.81.779.36 1.539.8 2.278 1.32.76.52 1.529 1.1 2.308 1.74.52.44 1.02.84 1.499 1.2.48.34.95.63 1.409.87.54.3 1.089.53 1.649.69.56.14 1.139.2 1.739.18.699 0 1.349-.16 1.948-.48.62-.32 1.159-.75 1.619-1.29.44-.52.79-1.13 1.049-1.83.26-.7.39-1.43.39-2.19l4.017.54Zm36.872 0c0 1.32-.219 2.59-.659 3.81-.44 1.22-1.059 2.3-1.859 3.24a9.15 9.15 0 0 1-2.848 2.25c-1.099.56-2.318.84-3.657.84-.939 0-1.818-.09-2.638-.27-.799-.18-1.579-.45-2.338-.81-.78-.36-1.549-.8-2.308-1.32-.74-.52-1.509-1.12-2.309-1.8a21.187 21.187 0 0 0-1.918-1.41c-.6-.42-1.199-.75-1.799-.99-.42-.18-.849-.31-1.289-.39-.42-.08-.859-.12-1.319-.12-.699 0-1.359.15-1.978.45-.6.28-1.12.66-1.559 1.14-.44.5-.79 1.09-1.049 1.77-.26.66-.39 1.37-.39 2.13l-4.017-.51c0-1.32.22-2.58.659-3.78.44-1.2 1.06-2.25 1.859-3.15a8.477 8.477 0 0 1 2.818-2.13c1.099-.54 2.318-.81 3.657-.81.919 0 1.789.1 2.608.3.84.18 1.649.45 2.428.81.78.36 1.539.8 2.279 1.32.759.52 1.528 1.1 2.308 1.74.52.44 1.019.84 1.499 1.2.479.34.949.63 1.409.87.539.3 1.089.53 1.648.69.56.14 1.14.2 1.739.18.7 0 1.349-.16 1.949-.48a5.319 5.319 0 0 0 1.619-1.29 6.1 6.1 0 0 0 1.049-1.83c.26-.7.389-1.43.389-2.19l4.017.54Zm36.873 0c0 1.32-.22 2.59-.66 3.81a10.4 10.4 0 0 1-1.858 3.24c-.8.94-1.749 1.69-2.848 2.25-1.1.56-2.318.84-3.657.84-.94 0-1.82-.09-2.638-.27-.8-.18-1.58-.45-2.339-.81-.78-.36-1.549-.8-2.308-1.32-.74-.52-1.509-1.12-2.308-1.8-.66-.54-1.299-1.01-1.919-1.41a8.927 8.927 0 0 0-1.798-.99c-.42-.18-.85-.31-1.289-.39a7.04 7.04 0 0 0-1.319-.12c-.7 0-1.359.15-1.979.45-.6.28-1.119.66-1.559 1.14-.44.5-.789 1.09-1.049 1.77-.26.66-.39 1.37-.39 2.13l-4.017-.51c0-1.32.22-2.58.66-3.78a9.724 9.724 0 0 1 1.858-3.15c.78-.9 1.719-1.61 2.818-2.13 1.099-.54 2.319-.81 3.658-.81.919 0 1.788.1 2.608.3.839.18 1.648.45 2.428.81.78.36 1.539.8 2.278 1.32.76.52 1.529 1.1 2.308 1.74.52.44 1.02.84 1.5 1.2.479.34.948.63 1.408.87.54.3 1.09.53 1.649.69.56.14 1.139.2 1.739.18.7 0 1.349-.16 1.948-.48.62-.32 1.16-.75 1.619-1.29.44-.52.79-1.13 1.05-1.83.259-.7.389-1.43.389-2.19l4.017.54Zm36.872 0c0 1.32-.22 2.59-.66 3.81a10.38 10.38 0 0 1-1.858 3.24c-.8.94-1.749 1.69-2.848 2.25-1.099.56-2.318.84-3.657.84-.94 0-1.819-.09-2.638-.27-.8-.18-1.579-.45-2.338-.81-.78-.36-1.55-.8-2.308-1.32a31.75 31.75 0 0 1-2.309-1.8c-.66-.54-1.299-1.01-1.918-1.41-.6-.42-1.2-.75-1.799-.99-.42-.18-.85-.31-1.29-.39a7.015 7.015 0 0 0-1.318-.12c-.7 0-1.36.15-1.979.45-.6.28-1.119.66-1.558 1.14-.44.5-.79 1.09-1.05 1.77-.26.66-.39 1.37-.39 2.13l-4.016-.51c0-1.32.22-2.58.66-3.78a9.706 9.706 0 0 1 1.858-3.15c.78-.9 1.719-1.61 2.818-2.13 1.099-.54 2.318-.81 3.657-.81.92 0 1.789.1 2.608.3.84.18 1.649.45 2.428.81.78.36 1.539.8 2.278 1.32.76.52 1.53 1.1 2.309 1.74.52.44 1.019.84 1.499 1.2.48.34.949.63 1.409.87.54.3 1.089.53 1.648.69.56.14 1.14.2 1.739.18.7 0 1.349-.16 1.948-.48a5.31 5.31 0 0 0 1.62-1.29c.439-.52.789-1.13 1.048-1.83.26-.7.39-1.43.39-2.19l4.017.54Zm36.873 0c0 1.32-.22 2.59-.66 3.81a10.42 10.42 0 0 1-1.858 3.24c-.8.94-1.75 1.69-2.848 2.25-1.1.56-2.319.84-3.658.84-.939 0-1.818-.09-2.638-.27-.799-.18-1.578-.45-2.338-.81-.78-.36-1.549-.8-2.308-1.32-.74-.52-1.509-1.12-2.308-1.8-.66-.54-1.3-1.01-1.919-1.41-.6-.42-1.2-.75-1.799-.99-.42-.18-.849-.31-1.289-.39-.42-.08-.859-.12-1.319-.12-.7 0-1.359.15-1.978.45-.6.28-1.12.66-1.559 1.14-.44.5-.79 1.09-1.05 1.77a5.779 5.779 0 0 0-.389 2.13l-4.017-.51c0-1.32.22-2.58.66-3.78a9.742 9.742 0 0 1 1.858-3.15c.78-.9 1.719-1.61 2.818-2.13 1.1-.54 2.318-.81 3.657-.81.92 0 1.789.1 2.608.3.84.18 1.65.45 2.429.81.779.36 1.538.8 2.278 1.32.76.52 1.529 1.1 2.308 1.74.52.44 1.02.84 1.499 1.2.48.34.95.63 1.409.87.54.3 1.09.53 1.649.69.56.14 1.139.2 1.738.18.7 0 1.35-.16 1.949-.48.62-.32 1.16-.75 1.619-1.29.44-.52.79-1.13 1.049-1.83.26-.7.39-1.43.39-2.19l4.017.54Zm36.873 0c0 1.32-.22 2.59-.66 3.81-.44 1.22-1.06 2.3-1.859 3.24-.8.94-1.749 1.69-2.848 2.25-1.1.56-2.318.84-3.657.84-.94 0-1.819-.09-2.638-.27-.8-.18-1.579-.45-2.338-.81-.78-.36-1.55-.8-2.309-1.32-.74-.52-1.509-1.12-2.308-1.8-.66-.54-1.299-1.01-1.919-1.41-.6-.42-1.199-.75-1.798-.99-.42-.18-.85-.31-1.29-.39a7.022 7.022 0 0 0-1.318-.12c-.7 0-1.36.15-1.979.45-.6.28-1.119.66-1.559 1.14-.44.5-.789 1.09-1.049 1.77-.26.66-.39 1.37-.39 2.13l-4.017-.51c0-1.32.22-2.58.66-3.78a9.73 9.73 0 0 1 1.859-3.15 8.473 8.473 0 0 1 2.817-2.13c1.1-.54 2.319-.81 3.658-.81.92 0 1.788.1 2.608.3.84.18 1.649.45 2.428.81.78.36 1.539.8 2.278 1.32.76.52 1.53 1.1 2.309 1.74.52.44 1.019.84 1.498 1.2.48.34.95.63 1.41.87.539.3 1.088.53 1.648.69.56.14 1.14.2 1.739.18.7 0 1.349-.16 1.948-.48a5.31 5.31 0 0 0 1.62-1.29c.439-.52.789-1.13 1.048-1.83.26-.7.39-1.43.39-2.19l4.017.54Z" />
</svg>
