<svg xmlns="http://www.w3.org/2000/svg" width="90" height="90" fill="none" viewBox="0 0 90 90">
  <path fill="#E6FF55" d="M0 78h90v12H0V78Z"/>
  <path fill="#12221F" d="M14.273 87v-5.688h1.91c.31 0 .592.032.844.094.256.063.473.158.653.285.18.128.317.29.414.485.099.195.148.426.148.691a1.282 1.282 0 0 1-.215.715 1.278 1.278 0 0 1-.613.48c.164.042.306.105.426.188s.219.182.297.297c.08.112.139.236.175.371a1.746 1.746 0 0 1-.082 1.137 1.4 1.4 0 0 1-.402.523 1.76 1.76 0 0 1-.637.316c-.25.07-.53.106-.843.106h-2.075Zm1.102-2.508v1.621h.977c.299-.002.527-.075.683-.219a.738.738 0 0 0 .238-.57c.003-.26-.067-.463-.21-.61-.144-.145-.365-.22-.665-.222h-1.023Zm0-.793h.816c.305-.002.54-.066.704-.191.164-.125.247-.309.25-.551 0-.266-.082-.456-.247-.57-.164-.118-.4-.177-.71-.18h-.813v1.492Zm5.641 1.176h-.832V87h-1.098v-5.688h1.906a3 3 0 0 1 .856.114c.255.073.472.18.652.324.182.143.322.322.418.535.099.214.148.461.148.742 0 .204-.024.387-.074.551a1.474 1.474 0 0 1-.531.774c-.125.096-.266.18-.422.25l1.223 2.347V87h-1.176l-1.07-2.125Zm-.832-.89h.812c.31 0 .548-.079.715-.235.17-.159.254-.375.254-.648 0-.284-.082-.504-.246-.66-.164-.16-.407-.239-.727-.239h-.808v1.781Zm7.206.523h-2.335v1.605h2.73V87h-3.832v-5.688h3.82v.895h-2.718v1.434h2.336v.867Zm4.102 1.305h-1.707L29.45 87h-1.156l1.863-5.688h.996L32.98 87h-1.156l-.332-1.188Zm-1.437-.934h1.18l-.583-2.094-.597 2.094Zm5.14-.215-.601.66V87h-1.102v-5.688h1.102v2.606l.515-.695 1.383-1.91h1.344l-1.914 2.515L37.906 87h-1.304l-1.407-2.336Zm3.352-3.351h3.289v.886h-1.11v3.918h1.11V87h-3.29v-.883h1.083V82.2h-1.082v-.886ZM46.86 87h-1.094l-1.582-3.668V87h-1.106v-5.688h1.106l1.57 3.653.004-3.653h1.101V87Zm4.964-.664a1.53 1.53 0 0 1-.289.262 2.318 2.318 0 0 1-.437.242 3.229 3.229 0 0 1-1.234.238 2.15 2.15 0 0 1-.876-.172 1.847 1.847 0 0 1-.668-.496 2.296 2.296 0 0 1-.43-.793 3.57 3.57 0 0 1-.148-1.07v-.774c0-.398.052-.754.156-1.066a2.43 2.43 0 0 1 .438-.8c.187-.22.406-.386.656-.5.253-.115.526-.173.82-.173.32 0 .6.04.836.122a1.556 1.556 0 0 1 .988.906c.095.219.156.465.184.738h-1.07c-.036-.292-.125-.51-.266-.656-.138-.149-.352-.223-.644-.223a.735.735 0 0 0-.39.11.941.941 0 0 0-.313.312c-.089.138-.16.31-.211.516a2.862 2.862 0 0 0-.078.707v.78c.002.532.09.94.265 1.223.175.282.442.424.801.426a1.646 1.646 0 0 0 .488-.074c.073-.023.137-.05.192-.078a.451.451 0 0 0 .129-.098l.004-1.03h-.942v-.821h2.035l.004 2.242Zm9.449.664H60.18l-1.582-3.668V87h-1.106v-5.688h1.106l1.57 3.653.004-3.653h1.101V87Zm4.555-2.492h-2.336v1.605h2.73V87h-3.831v-5.688h3.82v.895h-2.719v1.434h2.336v.867Zm4.086.23.414-3.425h1.008L70.546 87h-.991l-.54-3.36-.519 3.36h-.992l-.781-5.688h1.004l.406 3.403.484-3.403h.785l.512 3.426Zm4.976.778a.74.74 0 0 0-.054-.285.628.628 0 0 0-.18-.247 1.213 1.213 0 0 0-.332-.21 2.963 2.963 0 0 0-.508-.18 4.895 4.895 0 0 1-.71-.254 2.594 2.594 0 0 1-.594-.367 1.727 1.727 0 0 1-.414-.5 1.371 1.371 0 0 1-.153-.657c0-.24.051-.457.153-.652.101-.195.242-.362.421-.5a1.95 1.95 0 0 1 .637-.316c.245-.076.51-.114.797-.114.297 0 .568.043.813.13.247.085.46.206.636.363a1.626 1.626 0 0 1 .563 1.254h-1.07a1.082 1.082 0 0 0-.07-.352.768.768 0 0 0-.477-.453 1.17 1.17 0 0 0-.414-.067c-.146 0-.276.019-.391.055a.8.8 0 0 0-.285.148.632.632 0 0 0-.239.508c0 .107.027.203.079.29a.836.836 0 0 0 .234.234c.102.068.224.13.367.187.146.057.31.11.492.16.26.076.5.168.72.278.218.11.405.24.562.39.159.149.28.32.367.512.088.19.133.402.133.637 0 .25-.051.473-.153.668a1.444 1.444 0 0 1-.414.492 1.934 1.934 0 0 1-.633.305 2.996 2.996 0 0 1-.8.101 2.902 2.902 0 0 1-1.051-.199 2.267 2.267 0 0 1-.453-.254 1.76 1.76 0 0 1-.367-.355 1.686 1.686 0 0 1-.243-.461 1.795 1.795 0 0 1-.086-.57h1.079c.005.171.035.318.09.44a.8.8 0 0 0 .226.302.963.963 0 0 0 .351.171c.139.037.29.055.454.055.145 0 .274-.017.386-.05a.878.878 0 0 0 .29-.141.615.615 0 0 0 .18-.215.636.636 0 0 0 .062-.281Z"/>
</svg>
