<svg xmlns="http://www.w3.org/2000/svg" width="90" height="90" fill="none" viewBox="0 0 90 90">
  <path fill="#E6FF55" d="M0 78h90v12H0V78Z"/>
  <path fill="#12221F" d="M9.494 80.39h1.372l.005 4.927a2.276 2.276 0 0 1-.195.928 2.178 2.178 0 0 1-.513.718 2.314 2.314 0 0 1-.771.469 2.68 2.68 0 0 1-.948.166 3.28 3.28 0 0 1-.976-.137 2.14 2.14 0 0 1-.757-.405 1.874 1.874 0 0 1-.488-.684 2.485 2.485 0 0 1-.181-.962h1.377c.003.381.088.658.254.83.166.17.423.254.771.254.157 0 .3-.03.43-.088.13-.062.24-.145.332-.249a1.09 1.09 0 0 0 .21-.37 1.4 1.4 0 0 0 .078-.47v-4.926Zm7.612 4.078c0 .456-.06.875-.18 1.26-.12.384-.295.714-.523.99a2.406 2.406 0 0 1-.835.65 2.56 2.56 0 0 1-1.103.23 2.5 2.5 0 0 1-1.094-.23 2.303 2.303 0 0 1-.806-.65 2.987 2.987 0 0 1-.498-.99 4.416 4.416 0 0 1-.17-1.26v-1.035c0-.456.056-.876.17-1.26.114-.384.28-.715.498-.991.219-.28.486-.498.801-.655a2.456 2.456 0 0 1 1.094-.234c.413 0 .783.078 1.108.234.33.157.607.375.835.655.228.276.402.607.523.99.12.385.18.805.18 1.26v1.036Zm-1.391-1.045c0-.29-.025-.557-.073-.8a1.994 1.994 0 0 0-.22-.63 1.128 1.128 0 0 0-.39-.411 1.03 1.03 0 0 0-.572-.151.974.974 0 0 0-.557.151 1.06 1.06 0 0 0-.361.41 2.074 2.074 0 0 0-.195.63c-.04.244-.059.511-.059.8v1.046c0 .286.02.551.059.796.039.244.104.455.195.634.091.18.212.32.361.42.15.101.337.152.562.152.221 0 .41-.05.566-.152.16-.1.288-.239.386-.415.1-.179.176-.39.225-.634.048-.245.073-.512.073-.801v-1.045Zm2.739-3.033h4.111v1.11H21.18v4.898h1.386V87.5h-4.11v-1.103h1.352v-4.898h-1.353v-1.108Zm10.391 7.11h-1.367L25.5 82.915V87.5h-1.382v-7.11H25.5l1.963 4.566.005-4.565h1.377V87.5Zm12.549-5.991H39.2V87.5h-1.377v-5.991H35.66V80.39h5.733v1.118Zm5.473 5.991H45.51v-3.081h-2.012V87.5h-1.362v-7.11h1.362v2.916h2.012V80.39h1.357v7.11Zm5.689-3.115h-2.92v2.007h3.413V87.5h-4.79v-7.11h4.775v1.119h-3.398V83.3h2.92v1.084Zm9.096.508V87.5H60.28v-7.11h2.432c.387 0 .737.058 1.05.171.312.111.578.267.796.47.221.198.39.437.507.717.12.28.181.59.181.933 0 .319-.06.613-.18.883-.118.27-.287.505-.508.704a2.356 2.356 0 0 1-.796.459c-.313.11-.663.166-1.05.166h-1.06Zm0-1.114h1.06c.195 0 .364-.029.508-.088a.995.995 0 0 0 .571-.585 1.2 1.2 0 0 0 .073-.416c0-.166-.024-.32-.073-.463a1.005 1.005 0 0 0-.571-.63 1.273 1.273 0 0 0-.508-.093h-1.06v2.275Zm9.508.689c0 .456-.061.875-.181 1.26-.12.384-.295.714-.523.99a2.406 2.406 0 0 1-.835.65 2.56 2.56 0 0 1-1.103.23 2.5 2.5 0 0 1-1.094-.23 2.303 2.303 0 0 1-.806-.65 2.988 2.988 0 0 1-.498-.99 4.416 4.416 0 0 1-.17-1.26v-1.035c0-.456.056-.876.17-1.26.114-.384.28-.715.498-.991.218-.28.485-.498.8-.655.32-.156.684-.234 1.095-.234.413 0 .783.078 1.108.234.329.157.607.375.835.655.228.276.402.607.522.99.121.385.181.805.181 1.26v1.036Zm-1.392-1.045c0-.29-.025-.557-.074-.8a1.991 1.991 0 0 0-.22-.63 1.128 1.128 0 0 0-.39-.411 1.031 1.031 0 0 0-.571-.151.974.974 0 0 0-.557.151 1.06 1.06 0 0 0-.361.41 2.08 2.08 0 0 0-.196.63 5.089 5.089 0 0 0-.058.8v1.046c0 .286.02.551.058.796.04.244.105.455.196.634.09.18.211.32.361.42.15.101.337.152.562.152.22 0 .41-.05.566-.152.16-.1.288-.239.386-.415.1-.179.175-.39.224-.634.05-.245.074-.512.074-.801v-1.045Zm7.124 4.077h-1.368l-1.977-4.585V87.5h-1.382v-7.11h1.382l1.963 4.566.005-4.565h1.377V87.5Zm1.288 0v-7.11h1.841c.472 0 .899.082 1.28.245.384.16.711.384.981.674.274.286.484.63.63 1.03.15.4.225.84.225 1.318v.586c0 .479-.075.918-.225 1.319-.146.397-.353.74-.62 1.03-.267.286-.588.51-.962.669-.374.16-.788.239-1.24.239h-1.91Zm1.382-5.996v4.892h.528c.257 0 .486-.048.688-.146a1.39 1.39 0 0 0 .518-.425 1.97 1.97 0 0 0 .327-.674c.075-.267.112-.57.112-.908v-.596a3.14 3.14 0 0 0-.112-.869 1.909 1.909 0 0 0-.327-.678 1.468 1.468 0 0 0-.537-.44 1.65 1.65 0 0 0-.737-.156h-.46Z"/>
</svg>