<svg xmlns="http://www.w3.org/2000/svg" width="90" height="90" fill="none" viewBox="0 0 90 90">
  <path fill="#C490FF" d="M0 78h90v12H0V78Z"/>
  <path fill="#12221F" d="M23.372 85.002v2.607H22V80.5h2.432c.387 0 .737.057 1.05.17.312.112.577.268.795.47.222.198.391.438.508.717.12.28.18.591.18.933 0 .319-.06.614-.18.884-.117.27-.286.504-.508.703a2.354 2.354 0 0 1-.796.459c-.312.11-.662.166-1.05.166h-1.059Zm0-1.113h1.06c.195 0 .364-.03.508-.088a.997.997 0 0 0 .57-.586c.05-.134.074-.272.074-.415 0-.166-.024-.32-.073-.464a1.002 1.002 0 0 0-.572-.63 1.274 1.274 0 0 0-.507-.093h-1.06v2.276Zm9.282-3.389.005 4.712c0 .397-.055.75-.166 1.06-.107.309-.265.57-.474.786a2.003 2.003 0 0 1-.756.483 2.91 2.91 0 0 1-1.016.166 2.7 2.7 0 0 1-.972-.166 2.032 2.032 0 0 1-.737-.483 2.195 2.195 0 0 1-.478-.782 3.177 3.177 0 0 1-.166-1.064l.004-4.712h1.372l.005 4.712c.004.459.087.806.25 1.04.165.234.406.352.722.352.335 0 .59-.118.767-.352.179-.234.27-.581.273-1.04l.005-4.712h1.362Zm3.682 4.453h-1.04v2.656h-1.372V80.5h2.383c.393 0 .75.047 1.069.142.319.09.59.226.815.405.228.179.402.402.523.669.124.267.185.576.185.928 0 .253-.03.483-.092.688a1.841 1.841 0 0 1-.664.967c-.157.12-.333.224-.528.312l1.529 2.935v.063h-1.47l-1.338-2.656Zm-1.04-1.113h1.016c.387 0 .685-.098.893-.293.212-.199.318-.469.318-.81 0-.355-.103-.63-.308-.826-.205-.198-.508-.298-.908-.298h-1.011v2.227Zm7.046 1.113h-1.04v2.656H39.93V80.5h2.383c.393 0 .75.047 1.069.142.319.09.59.226.815.405.228.179.402.402.523.669.123.267.185.576.185.928 0 .253-.03.483-.093.688a1.841 1.841 0 0 1-.664.967c-.156.12-.332.224-.527.312l1.528 2.935v.063h-1.47l-1.337-2.656Zm-1.04-1.113h1.015c.388 0 .686-.098.894-.293.212-.199.317-.469.317-.81 0-.355-.102-.63-.307-.826-.205-.198-.508-.298-.908-.298h-1.011v2.227Zm9.858-2.222h-2.192v5.991H47.59v-5.99h-2.163V80.5h5.732v1.118Zm4.278 4.507h-2.134l-.42 1.484h-1.446l2.33-7.109h1.245l2.285 7.11h-1.446l-.414-1.485Zm-1.797-1.167h1.474l-.727-2.617-.747 2.617Zm6.719-.005h-1.04v2.656h-1.373V80.5h2.383c.394 0 .75.047 1.07.142.318.09.59.226.815.405.228.179.402.402.522.669.124.267.186.576.186.928 0 .253-.031.483-.093.688a1.841 1.841 0 0 1-.664.967c-.156.12-.332.224-.527.312l1.528 2.935v.063h-1.47l-1.338-2.656Zm-1.04-1.113h1.015c.387 0 .685-.098.893-.293.212-.199.318-.469.318-.81 0-.355-.103-.63-.308-.826-.205-.198-.508-.298-.908-.298h-1.01v2.227Zm4.604 3.77V80.5h1.84c.473 0 .9.081 1.28.244.384.16.711.384.981.674.274.286.484.63.63 1.03.15.4.225.84.225 1.319v.586c0 .478-.075.918-.225 1.318-.146.397-.353.74-.62 1.03-.267.287-.587.51-.962.67a3.137 3.137 0 0 1-1.24.238h-1.91Zm1.382-5.997v4.893h.527c.257 0 .487-.049.689-.147a1.39 1.39 0 0 0 .517-.424 1.98 1.98 0 0 0 .327-.674c.075-.267.112-.57.112-.908v-.596a3.14 3.14 0 0 0-.112-.87 1.91 1.91 0 0 0-.327-.678 1.47 1.47 0 0 0-.537-.44 1.65 1.65 0 0 0-.737-.156h-.46Z"/>
</svg>