<svg xmlns="http://www.w3.org/2000/svg" width="90" height="90" fill="none" viewBox="0 0 90 90">
  <path fill="#12221F" d="M45 3h42v18H45V3Z"/>
  <path fill="#AFF2E2" d="M46.091 12.968V3.716h5.448v.6h-4.848v8.652h-.6Z"/>
  <path fill="#AFF2E2" d="M51.418 4.316v-.6h10.056v.6H51.418Z"/>
  <path fill="#AFF2E2" d="M61.473 4.316v-.6h10.056v.6H61.473Z"/>
  <path fill="#AFF2E2" d="M71.527 4.316v-.6h10.056v.6H71.527Z"/>
  <path fill="#AFF2E2" d="M86.31 12.968V4.316h-4.848v-.6h5.448v9.252h-.6Zm-40.219 7.348v-9.252h.6v8.652h4.848v.6h-5.448Z"/>
  <path fill="#AFF2E2" d="M51.418 20.316v-.6h10.056v.6H51.418Z"/>
  <path fill="#AFF2E2" d="M61.473 20.316v-.6h10.056v.6H61.473Z"/>
  <path fill="#AFF2E2" d="M71.527 20.316v-.6h10.056v.6H71.527Z"/>
  <path fill="#AFF2E2" d="M81.462 20.316v-.6h4.848v-8.652h.6v9.252h-5.448ZM55.87 10.11h-1.281l-.252.89h-.867l1.397-4.266h.747L56.985 11h-.867l-.249-.89Zm-1.079-.7h.885l-.437-1.571-.448 1.57Zm2.783-2.91h1.773v3.838h.908V11h-2.68v-.662h.948V7.165h-.949V6.5Zm5.71 1.271c.123 0 .236.01.34.027.105.015.19.033.255.053l-.12.811a2.6 2.6 0 0 0-.331-.056 2.62 2.62 0 0 0-.32-.02c-.228 0-.412.044-.55.132a.802.802 0 0 0-.308.378V11h-.815V7.83h.76l.037.519c.13-.18.284-.32.463-.422a1.16 1.16 0 0 1 .59-.156Zm1.544.059h1.726v2.508h.858V11h-2.584v-.662h.903V8.495h-.903V7.83Zm.844-.811c0-.063.01-.12.032-.173a.43.43 0 0 1 .243-.229.557.557 0 0 1 .194-.032.47.47 0 0 1 .342.123c.086.08.13.184.13.31a.415.415 0 0 1-.13.314.476.476 0 0 1-.342.12.557.557 0 0 1-.194-.032.457.457 0 0 1-.146-.088.428.428 0 0 1-.097-.138.476.476 0 0 1-.032-.175Zm2.461 2.373c0-.24.03-.46.088-.66.06-.199.146-.37.257-.512.112-.143.247-.253.405-.331.158-.078.337-.118.536-.118.186 0 .345.032.478.094a.96.96 0 0 1 .34.267l.032-.302h.74v3.068c0 .214-.036.406-.11.574-.073.168-.175.31-.308.425a1.3 1.3 0 0 1-.475.26 1.936 1.936 0 0 1-.917.062 1.8 1.8 0 0 1-.325-.091 1.502 1.502 0 0 1-.305-.158 1.006 1.006 0 0 1-.246-.226l.367-.495c.103.117.22.206.351.267.13.062.273.093.425.093.228 0 .406-.061.533-.184.129-.121.193-.294.193-.519v-.181a1.02 1.02 0 0 1-.336.246 1.046 1.046 0 0 1-.443.088c-.197 0-.375-.04-.533-.12a1.231 1.231 0 0 1-.401-.337 1.57 1.57 0 0 1-.258-.507 2.244 2.244 0 0 1-.088-.642v-.061Zm.817.061c0 .133.013.257.038.372a.979.979 0 0 0 .123.299.63.63 0 0 0 .208.2.584.584 0 0 0 .3.072.68.68 0 0 0 .35-.082.596.596 0 0 0 .223-.228V8.744a.57.57 0 0 0-.222-.228.666.666 0 0 0-.346-.082.566.566 0 0 0-.299.076.62.62 0 0 0-.21.205.978.978 0 0 0-.124.305c-.027.115-.04.239-.04.372v.061Zm3.683-1.186c.105-.155.233-.276.384-.364a1 1 0 0 1 .51-.132c.165 0 .318.026.456.077a.891.891 0 0 1 .358.231c.1.106.177.241.231.407.057.164.085.363.085.595V11h-.814V9.075a.873.873 0 0 0-.044-.293.482.482 0 0 0-.12-.199.477.477 0 0 0-.19-.111.776.776 0 0 0-.253-.038.817.817 0 0 0-.357.073.662.662 0 0 0-.246.205V11h-.815V6.5h.815v1.767Zm4.283-1.213v.776H78.1v.6h-1.184v1.363c0 .115.013.212.038.29a.47.47 0 0 0 .114.185.43.43 0 0 0 .176.096c.07.02.149.03.234.03a4.296 4.296 0 0 0 .378-.03 5.933 5.933 0 0 0 .302-.058l.08.56a1.05 1.05 0 0 1-.2.087 2.092 2.092 0 0 1-.243.059 2.817 2.817 0 0 1-.27.035 2.49 2.49 0 0 1-.272.014c-.174 0-.332-.022-.475-.067a.968.968 0 0 1-.363-.214.984.984 0 0 1-.231-.369 1.58 1.58 0 0 1-.082-.539V8.431h-.724v-.6h.724v-.777h.814ZM57.718 15.88a.572.572 0 0 0-.038-.216.464.464 0 0 0-.117-.176.779.779 0 0 0-.211-.143 2.386 2.386 0 0 0-.314-.132 5.464 5.464 0 0 1-.539-.223 1.762 1.762 0 0 1-.416-.272 1.108 1.108 0 0 1-.264-.36 1.19 1.19 0 0 1-.093-.493c0-.166.028-.317.084-.454.057-.138.137-.259.24-.36.104-.102.23-.184.376-.246.146-.063.31-.103.489-.12v-.63h.469v.635c.176.024.334.072.474.144a1.198 1.198 0 0 1 .586.694c.055.157.082.332.082.528h-.814c0-.237-.054-.415-.161-.536a.55.55 0 0 0-.437-.185c-.1 0-.186.014-.26.041a.45.45 0 0 0-.285.278.666.666 0 0 0 0 .416.474.474 0 0 0 .115.164c.054.051.126.1.214.147.087.045.197.09.328.138.197.074.376.15.536.231.16.078.297.17.41.275.115.104.203.225.264.364.062.136.093.299.093.486 0 .172-.028.327-.085.466a1.017 1.017 0 0 1-.243.354c-.105.1-.232.18-.38.24a1.826 1.826 0 0 1-.499.115v.574h-.466v-.574a1.95 1.95 0 0 1-.483-.109 1.292 1.292 0 0 1-.416-.252 1.205 1.205 0 0 1-.287-.413 1.523 1.523 0 0 1-.108-.603h.817a.9.9 0 0 0 .061.354.63.63 0 0 0 .159.226.607.607 0 0 0 .225.117c.084.024.17.035.258.035.209 0 .367-.049.475-.146a.487.487 0 0 0 .16-.378ZM59.17 17v-4.266h1.433c.233 0 .444.024.633.07.192.048.355.119.49.215a.96.96 0 0 1 .31.363c.074.146.111.32.111.518a.962.962 0 0 1-.16.537.96.96 0 0 1-.46.36.987.987 0 0 1 .319.14c.09.063.164.137.222.223.06.084.105.177.132.278a1.31 1.31 0 0 1-.062.853 1.05 1.05 0 0 1-.301.393c-.13.105-.29.184-.478.237a2.34 2.34 0 0 1-.632.079H59.17Zm.827-1.88v1.215h.733c.224-.002.395-.057.512-.164a.554.554 0 0 0 .179-.428c.002-.195-.05-.348-.158-.457-.108-.11-.274-.165-.498-.167h-.768Zm0-.596h.612c.229-.001.405-.05.528-.143.123-.094.185-.232.187-.413 0-.2-.061-.342-.184-.428-.123-.088-.301-.133-.534-.135h-.609v1.12Zm5.625-1.79.003 2.828c0 .238-.033.45-.1.635a1.253 1.253 0 0 1-.284.472 1.201 1.201 0 0 1-.454.29c-.178.066-.38.1-.61.1a1.63 1.63 0 0 1-.582-.1 1.22 1.22 0 0 1-.443-.29 1.318 1.318 0 0 1-.287-.469c-.066-.187-.1-.4-.1-.638l.004-2.828h.823l.003 2.828c.002.275.052.483.15.624.099.14.243.21.433.21.2 0 .354-.07.46-.21.107-.141.162-.35.164-.624l.003-2.828h.817ZM66.366 17v-4.266h1.105c.283 0 .539.05.767.147.23.096.427.23.59.404.163.172.29.378.377.618.09.24.135.504.135.791v.352c0 .287-.045.55-.135.79a1.841 1.841 0 0 1-.372.62 1.67 1.67 0 0 1-.577.4 1.88 1.88 0 0 1-.744.144h-1.146Zm.83-3.598v2.936h.316c.154 0 .292-.03.413-.088a.833.833 0 0 0 .31-.255c.086-.111.152-.246.197-.404.045-.16.067-.342.067-.545v-.357c0-.192-.022-.366-.067-.522a1.145 1.145 0 0 0-.197-.407.882.882 0 0 0-.322-.264.99.99 0 0 0-.442-.094h-.276ZM69.97 17v-4.266h1.104c.283 0 .54.05.768.147.23.096.427.23.589.404.164.172.29.378.378.618.09.24.134.504.134.791v.352c0 .287-.045.55-.134.79a1.841 1.841 0 0 1-.373.62 1.67 1.67 0 0 1-.577.4 1.88 1.88 0 0 1-.744.144H69.97Zm.829-3.598v2.936h.316c.154 0 .292-.03.413-.088a.833.833 0 0 0 .31-.255c.087-.111.152-.246.197-.404a2.02 2.02 0 0 0 .068-.545v-.357a1.88 1.88 0 0 0-.068-.522 1.145 1.145 0 0 0-.196-.407.882.882 0 0 0-.322-.264.99.99 0 0 0-.443-.094H70.8Zm4.248 1.298.84-1.966h.906l-1.342 2.79L75.448 17h-.82l-.003-1.512-1.321-2.754h.902l.84 1.966ZM72.91 32.732h-1.517l3.193-9.263h1.517l-3.193 9.263Z"/>
</svg>