<svg xmlns="http://www.w3.org/2000/svg" width="90" height="90" fill="none" viewBox="0 0 90 90">
  <path fill="#12221F" d="M45 3h42v18H45V3Z"/>
  <path fill="#AFF2E2" d="M45.728 12.968V3.716h5.448v.6h-4.848v8.652h-.6Z"/>
  <path fill="#AFF2E2" d="M51.055 4.316v-.6H61.11v.6H51.055Zm10.055 0v-.6h10.055v.6H61.11Z"/>
  <path fill="#AFF2E2" d="M71.164 4.316v-.6H81.22v.6H71.164Z"/>
  <path fill="#AFF2E2" d="M85.947 12.968V4.316h-4.848v-.6h5.448v9.252h-.6Zm-40.219 7.348v-9.252h.6v8.652h4.848v.6h-5.448Z"/>
  <path fill="#AFF2E2" d="M51.055 20.316v-.6H61.11v.6H51.055Zm10.055 0v-.6h10.055v.6H61.11Z"/>
  <path fill="#AFF2E2" d="M71.164 20.316v-.6H81.22v.6H71.164Z"/>
  <path fill="#AFF2E2" d="M81.099 20.316v-.6h4.848v-8.652h.6v9.252h-5.448Zm-8.464 12.416h-1.518l3.194-9.263h1.517l-3.193 9.263ZM60.494 14v-2.57h-.832v-.6h.832v-.173c0-.209.033-.393.1-.553.066-.16.16-.295.284-.405.123-.11.272-.191.448-.246.176-.057.372-.085.589-.085.068 0 .134.003.196.009.065.004.127.01.188.018a5.793 5.793 0 0 1 .375.058l-.053.639a2.711 2.711 0 0 0-.583-.059c-.254 0-.438.054-.554.161-.115.108-.172.262-.172.463v.173h1.142v.6h-1.142V14h-.818Zm4.219-.592c.08 0 .156-.011.228-.035a.607.607 0 0 0 .19-.1.438.438 0 0 0 .127-.155.388.388 0 0 0 .04-.202h.768a.936.936 0 0 1-.102.457c-.07.14-.167.262-.29.363a1.419 1.419 0 0 1-.43.24 1.553 1.553 0 0 1-.516.085c-.247 0-.462-.04-.648-.123a1.333 1.333 0 0 1-.466-.342 1.508 1.508 0 0 1-.281-.507 2.046 2.046 0 0 1-.094-.627v-.088c0-.223.032-.43.094-.624.063-.195.156-.365.281-.51.125-.144.28-.259.463-.342.186-.085.4-.127.645-.127.195 0 .376.03.542.088.166.059.308.142.427.25.121.105.215.234.282.386.066.15.097.32.093.507H65.3a.535.535 0 0 0-.155-.404.577.577 0 0 0-.19-.12.62.62 0 0 0-.244-.047.59.59 0 0 0-.32.079.598.598 0 0 0-.201.21 1 1 0 0 0-.106.303c-.02.113-.03.23-.03.351v.088c0 .123.01.242.03.357.02.114.054.214.103.302a.6.6 0 0 0 .202.208c.086.053.194.08.325.08Zm2.988.592v-2.57h-.832v-.6h.832v-.173c0-.209.033-.393.1-.553.066-.16.16-.295.284-.405a1.2 1.2 0 0 1 .448-.246c.176-.057.372-.085.59-.085.067 0 .133.003.195.009.065.004.127.01.188.018a5.787 5.787 0 0 1 .375.058l-.053.639a2.713 2.713 0 0 0-.583-.059c-.254 0-.438.054-.554.161-.115.108-.172.262-.172.463v.173h1.142v.6H68.52V14h-.82Zm4.86-.87a.237.237 0 0 0-.035-.129.294.294 0 0 0-.12-.103 1.009 1.009 0 0 0-.228-.09 4.1 4.1 0 0 0-.364-.082 3.695 3.695 0 0 1-.51-.138 1.679 1.679 0 0 1-.392-.202.951.951 0 0 1-.258-.276.696.696 0 0 1-.09-.357c0-.13.03-.256.093-.375a.951.951 0 0 1 .27-.313c.117-.09.26-.162.427-.214a1.89 1.89 0 0 1 .569-.08c.22 0 .419.027.595.08.175.05.324.122.445.213a.875.875 0 0 1 .378.73h-.815a.383.383 0 0 0-.149-.308c-.1-.084-.251-.126-.454-.126-.19 0-.333.035-.43.103-.096.068-.144.152-.144.252 0 .047.01.09.029.132.02.039.054.075.103.108a.97.97 0 0 0 .205.088c.085.025.195.048.328.067.191.032.369.072.533.12.164.05.306.113.425.19a.85.85 0 0 1 .278.282.73.73 0 0 1 .103.393.77.77 0 0 1-.103.39.923.923 0 0 1-.287.304 1.46 1.46 0 0 1-.448.202c-.176.047-.372.07-.59.07a1.96 1.96 0 0 1-.632-.093 1.49 1.49 0 0 1-.457-.243 1.078 1.078 0 0 1-.281-.343.88.88 0 0 1-.094-.387h.776a.47.47 0 0 0 .07.223.53.53 0 0 0 .159.15.755.755 0 0 0 .22.081c.083.018.17.027.257.027.201 0 .355-.033.46-.097.106-.064.158-.148.158-.25Z"/>
</svg>
