<svg xmlns="http://www.w3.org/2000/svg" width="90" height="90" fill="none" viewBox="0 0 90 90">
  <path fill="#12221F" d="M45 3h42v18H45V3Z"/>
  <path fill="#AFF2E2" d="M46.091 12.968V3.716h5.448v.6h-4.848v8.652h-.6Z"/>
  <path fill="#AFF2E2" d="M51.418 4.316v-.6h10.056v.6H51.418Z"/>
  <path fill="#AFF2E2" d="M61.473 4.316v-.6h10.056v.6H61.473Z"/>
  <path fill="#AFF2E2" d="M71.527 4.316v-.6h10.056v.6H71.527Z"/>
  <path fill="#AFF2E2" d="M86.31 12.968V4.316h-4.848v-.6h5.448v9.252h-.6Zm-40.219 7.348v-9.252h.6v8.652h4.848v.6h-5.448Z"/>
  <path fill="#AFF2E2" d="M51.418 20.316v-.6h10.056v.6H51.418Z"/>
  <path fill="#AFF2E2" d="M61.473 20.316v-.6h10.056v.6H61.473Z"/>
  <path fill="#AFF2E2" d="M71.527 20.316v-.6h10.056v.6H71.527Z"/>
  <path fill="#AFF2E2" d="M81.462 20.316v-.6h4.848v-8.652h.6v9.252h-5.448ZM72.91 32.732h-1.517l3.193-9.263h1.517l-3.193 9.263Zm-19.191-20.34c0-.24.029-.46.088-.66.06-.199.146-.37.258-.512.11-.143.245-.253.404-.331.158-.079.337-.117.536-.117.185 0 .345.03.477.093a.961.961 0 0 1 .34.267l.032-.302h.742v3.068c0 .214-.037.406-.112.574-.072.168-.174.31-.307.425a1.3 1.3 0 0 1-.475.26 1.935 1.935 0 0 1-.917.062 1.8 1.8 0 0 1-.325-.091 1.5 1.5 0 0 1-.305-.158 1.005 1.005 0 0 1-.246-.226l.366-.495c.104.117.221.206.352.267.13.062.272.093.425.093.228 0 .406-.061.533-.184.129-.121.193-.294.193-.519v-.181a1.02 1.02 0 0 1-.337.246 1.046 1.046 0 0 1-.442.088c-.197 0-.375-.04-.533-.12a1.232 1.232 0 0 1-.401-.337 1.57 1.57 0 0 1-.258-.507 2.244 2.244 0 0 1-.088-.642v-.061Zm.817.061c0 .133.013.257.038.372a.981.981 0 0 0 .123.299.63.63 0 0 0 .208.2.584.584 0 0 0 .3.072.68.68 0 0 0 .35-.082.597.597 0 0 0 .223-.228v-1.342a.571.571 0 0 0-.222-.228.666.666 0 0 0-.346-.082.567.567 0 0 0-.299.076.621.621 0 0 0-.21.205.978.978 0 0 0-.124.305c-.027.115-.04.239-.04.372v.061Zm4.286-.047h-.624V14h-.823V9.734h1.43c.236 0 .45.029.641.085.192.055.355.136.49.243.136.108.24.242.313.402.074.16.111.346.111.556 0 .153-.018.29-.055.414a1.104 1.104 0 0 1-.399.58 1.577 1.577 0 0 1-.316.187l.917 1.76V14h-.882l-.803-1.594Zm-.624-.668h.61c.232 0 .41-.058.536-.175a.635.635 0 0 0 .19-.487c0-.213-.061-.378-.184-.495-.123-.12-.305-.179-.545-.179h-.607v1.336Zm3.027-.908h1.725v2.508h.859V14h-2.584v-.662h.902v-1.843h-.902v-.665Zm.843-.811c0-.063.011-.12.033-.173a.43.43 0 0 1 .243-.229.557.557 0 0 1 .193-.032.47.47 0 0 1 .343.123c.086.08.129.184.129.31a.415.415 0 0 1-.13.314.476.476 0 0 1-.342.12.557.557 0 0 1-.193-.032.457.457 0 0 1-.147-.088.425.425 0 0 1-.096-.138.476.476 0 0 1-.033-.175Zm5.4 2.428c0 .237-.027.453-.08.65-.05.198-.127.368-.23.51a1.096 1.096 0 0 1-.388.334 1.179 1.179 0 0 1-.539.118 1.07 1.07 0 0 1-.483-.103 1.066 1.066 0 0 1-.349-.293l-.038.337h-.732V9.5h.814v1.617a.998.998 0 0 1 .331-.255c.13-.06.28-.09.452-.09a1.091 1.091 0 0 1 .932.454c.103.142.18.313.23.512.053.197.08.413.08.648v.061Zm-.815-.061c0-.13-.01-.251-.029-.366a.916.916 0 0 0-.102-.302.536.536 0 0 0-.194-.208.574.574 0 0 0-.308-.076.643.643 0 0 0-.363.093.619.619 0 0 0-.214.258v1.263a.62.62 0 0 0 .214.258.655.655 0 0 0 .37.093.596.596 0 0 0 .304-.07.534.534 0 0 0 .19-.2.916.916 0 0 0 .103-.3c.02-.118.03-.245.03-.382v-.061Zm4.418.061c0 .237-.026.453-.079.65a1.49 1.49 0 0 1-.231.51 1.096 1.096 0 0 1-.387.334 1.179 1.179 0 0 1-.539.118 1.07 1.07 0 0 1-.483-.103 1.065 1.065 0 0 1-.35-.293l-.037.337h-.733V9.5h.815v1.617a.998.998 0 0 1 .33-.255c.13-.06.28-.09.452-.09a1.091 1.091 0 0 1 .932.454c.103.142.18.313.231.512.053.197.08.413.08.648v.061Zm-.814-.061c0-.13-.01-.251-.03-.366a.916.916 0 0 0-.102-.302.536.536 0 0 0-.193-.208.574.574 0 0 0-.308-.076.643.643 0 0 0-.363.093.62.62 0 0 0-.214.258v1.263a.62.62 0 0 0 .214.258.655.655 0 0 0 .369.093.596.596 0 0 0 .305-.07.534.534 0 0 0 .19-.2.916.916 0 0 0 .103-.3 2.29 2.29 0 0 0 .029-.382v-.061Zm1.778-1.556h1.726v2.508h.858V14h-2.584v-.662h.903v-1.843h-.903v-.665Zm.844-.811c0-.063.01-.12.032-.173a.432.432 0 0 1 .243-.229.558.558 0 0 1 .194-.032.47.47 0 0 1 .342.123c.086.08.13.184.13.31a.414.414 0 0 1-.13.314.476.476 0 0 1-.342.12.557.557 0 0 1-.194-.032.458.458 0 0 1-.146-.088.428.428 0 0 1-.097-.138.476.476 0 0 1-.032-.175Zm4.037.035v.776H78.1v.6h-1.184v1.363c0 .115.013.212.038.29a.47.47 0 0 0 .114.185.43.43 0 0 0 .176.096c.07.02.149.03.234.03a4.296 4.296 0 0 0 .378-.03 5.933 5.933 0 0 0 .302-.058l.08.56a1.05 1.05 0 0 1-.2.087 2.092 2.092 0 0 1-.243.059 2.817 2.817 0 0 1-.27.035 2.49 2.49 0 0 1-.272.014c-.174 0-.332-.022-.475-.067a.968.968 0 0 1-.363-.214.984.984 0 0 1-.231-.369 1.58 1.58 0 0 1-.082-.539v-1.441h-.724v-.6h.724v-.777h.814Z"/>
</svg>
