<svg xmlns="http://www.w3.org/2000/svg" width="90" height="90" fill="none" viewBox="0 0 90 90">
  <path fill="#12221F" d="M45.5 3h41.1l.4 17H45.5V3Z"/>
  <path fill="#AFF2E2" d="M45.781 12.252V3h5.448v.6h-4.848v8.652h-.6Z"/>
  <path fill="#AFF2E2" d="M51.108 3.6V3h10.056v.6H51.108Z"/>
  <path fill="#AFF2E2" d="M61.163 3.6V3h10.056v.6H61.163Z"/>
  <path fill="#AFF2E2" d="M71.217 3.6V3h10.056v.6H71.217Z"/>
  <path fill="#AFF2E2" d="M86 12.252V3.6h-4.848V3H86.6v9.252H86ZM45.781 19.6v-9.252h.6V19h4.848v.6h-5.448Z"/>
  <path fill="#AFF2E2" d="M51.108 19.6V19h10.056v.6H51.108Z"/>
  <path fill="#AFF2E2" d="M61.163 19.6V19h10.056v.6H61.163Z"/>
  <path fill="#AFF2E2" d="M71.217 19.6V19h10.056v.6H71.217Z"/>
  <path fill="#AFF2E2" d="M81.152 19.6V19H86v-8.652h.6V19.6h-5.448Zm-8.464 12.416H71.17l3.194-9.263h1.517l-3.193 9.263ZM56.983 12.809a.662.662 0 0 0-.052-.272.583.583 0 0 0-.162-.221 1.09 1.09 0 0 0-.292-.18 3.464 3.464 0 0 0-.434-.166 8.05 8.05 0 0 1-.746-.28 2.474 2.474 0 0 1-.575-.343 1.41 1.41 0 0 1-.365-.453 1.377 1.377 0 0 1-.13-.618 1.333 1.333 0 0 1 .45-1.024c.143-.128.316-.23.519-.31a2.48 2.48 0 0 1 .677-.15V8h.648v.799c.243.03.462.09.657.18a1.555 1.555 0 0 1 .81.873c.076.197.114.418.114.663h-1.127c0-.297-.074-.522-.223-.674-.148-.155-.35-.232-.604-.232-.138 0-.258.017-.36.052a.633.633 0 0 0-.248.14.562.562 0 0 0-.146.21.762.762 0 0 0-.044.265c0 .095.015.181.044.257a.596.596 0 0 0 .158.207c.076.063.175.125.296.184.122.056.273.114.454.173.273.093.52.19.742.29.222.099.41.214.568.347.159.13.28.282.364.456.087.172.13.376.13.612 0 .216-.04.41-.117.585-.079.172-.191.32-.337.446a1.715 1.715 0 0 1-.527.302 2.743 2.743 0 0 1-.689.143V15h-.644v-.722a2.931 2.931 0 0 1-.67-.136 1.827 1.827 0 0 1-.575-.317 1.522 1.522 0 0 1-.397-.519 1.76 1.76 0 0 1-.15-.758h1.13c0 .176.03.325.086.445a.8.8 0 0 0 .219.284.875.875 0 0 0 .312.147c.116.03.235.044.357.044.289 0 .508-.061.656-.184a.588.588 0 0 0 .223-.475Zm5.914 1.407H61.77v-2.324H60.1v2.324h-1.13V8.854h1.13v2.199h1.67V8.854h1.127v5.362Zm3.105-2.891 1.163-2.47h1.253L66.56 12.36l-.004 1.856h-1.135l-.004-1.9-1.828-3.462h1.249l1.163 2.471Zm4.183.925v1.966h-1.139V8.854h2.019c.321 0 .612.043.871.13.26.083.48.2.66.353.185.15.325.33.422.541.1.211.15.445.15.703a1.53 1.53 0 0 1-.572 1.197 2.01 2.01 0 0 1-.66.346c-.26.084-.55.125-.871.125h-.88Zm0-.84h.88c.162 0 .302-.022.421-.066a.835.835 0 0 0 .296-.18.703.703 0 0 0 .178-.262.83.83 0 0 0 .061-.313.988.988 0 0 0-.06-.35.744.744 0 0 0-.179-.284.822.822 0 0 0-.296-.191 1.152 1.152 0 0 0-.421-.07h-.88v1.716Zm7.405.456h-2.423v1.514H78v.836h-3.976V8.854h3.964v.844h-2.821v1.35h2.424v.818Z"/>
</svg>