<svg xmlns="http://www.w3.org/2000/svg" width="90" height="90" fill="none" viewBox="0 0 90 90">
  <path fill="#12221F" d="M45 3h42v18H45V3Z"/>
  <path fill="#AFF2E2" d="M46.091 12.968V3.716h5.448v.6h-4.848v8.652h-.6Z"/>
  <path fill="#AFF2E2" d="M51.418 4.316v-.6h10.056v.6H51.418Z"/>
  <path fill="#AFF2E2" d="M61.473 4.316v-.6h10.056v.6H61.473Z"/>
  <path fill="#AFF2E2" d="M71.527 4.316v-.6h10.056v.6H71.527Z"/>
  <path fill="#AFF2E2" d="M86.31 12.968V4.316h-4.848v-.6h5.448v9.252h-.6Zm-40.219 7.348v-9.252h.6v8.652h4.848v.6h-5.448Z"/>
  <path fill="#AFF2E2" d="M51.418 20.316v-.6h10.056v.6H51.418Z"/>
  <path fill="#AFF2E2" d="M61.473 20.316v-.6h10.056v.6H61.473Z"/>
  <path fill="#AFF2E2" d="M71.527 20.316v-.6h10.056v.6H71.527Z"/>
  <path fill="#AFF2E2" d="M81.462 20.316v-.6h4.848v-8.652h.6v9.252h-5.448ZM51.573 9.233h-1.828V11h-.826V6.734h2.883v.671h-2.057v1.16h1.828v.668Zm3.202-1.462c.123 0 .237.01.34.027.106.015.19.033.255.053l-.12.811a2.6 2.6 0 0 0-.331-.056 2.62 2.62 0 0 0-.32-.02c-.228 0-.411.044-.55.132a.802.802 0 0 0-.308.378V11h-.814V7.83h.758l.039.519c.129-.18.283-.32.463-.422a1.16 1.16 0 0 1 .588-.156Zm1.216 1.615c0-.23.033-.444.1-.639a1.366 1.366 0 0 1 .759-.853c.185-.082.397-.123.635-.123.239 0 .45.042.636.124.186.082.342.195.469.34.129.144.226.315.293.512.066.195.1.408.1.639v.061c0 .233-.034.448-.1.645a1.49 1.49 0 0 1-.29.51 1.33 1.33 0 0 1-.469.34c-.186.08-.397.12-.633.12-.238 0-.451-.04-.639-.12a1.36 1.36 0 0 1-.761-.85 2.009 2.009 0 0 1-.1-.645v-.061Zm.815.061c0 .133.012.258.038.375a.963.963 0 0 0 .12.305.623.623 0 0 0 .21.205c.089.05.194.076.317.076.12 0 .222-.025.308-.076a.597.597 0 0 0 .208-.205.965.965 0 0 0 .12-.305c.025-.117.038-.242.038-.375v-.061c0-.13-.013-.251-.038-.366a.965.965 0 0 0-.12-.305.589.589 0 0 0-.208-.208.606.606 0 0 0-.314-.076.6.6 0 0 0-.31.076.614.614 0 0 0-.211.208.962.962 0 0 0-.12.305 1.698 1.698 0 0 0-.038.366v.061Zm2.818-.055c0-.24.03-.46.088-.66.06-.199.146-.37.258-.512a1.16 1.16 0 0 1 .404-.331c.158-.078.337-.118.536-.118.186 0 .345.032.478.094a.96.96 0 0 1 .34.267l.032-.302h.741v3.068c0 .214-.037.406-.111.574-.073.168-.175.31-.308.425a1.3 1.3 0 0 1-.475.26 1.936 1.936 0 0 1-.917.062 1.857 1.857 0 0 1-.325-.091 1.502 1.502 0 0 1-.305-.158 1.004 1.004 0 0 1-.245-.226l.366-.495c.103.117.22.206.351.267a.982.982 0 0 0 .425.093c.228 0 .406-.061.533-.184.13-.121.194-.294.194-.519v-.181a1.02 1.02 0 0 1-.337.246 1.046 1.046 0 0 1-.443.088c-.197 0-.375-.04-.533-.12a1.232 1.232 0 0 1-.401-.337 1.572 1.572 0 0 1-.258-.507 2.244 2.244 0 0 1-.088-.642v-.061Zm.817.061c0 .133.013.257.038.372a.981.981 0 0 0 .123.299.584.584 0 0 0 .507.272.68.68 0 0 0 .352-.081.596.596 0 0 0 .223-.23v-1.34a.57.57 0 0 0-.223-.23.666.666 0 0 0-.346-.081.566.566 0 0 0-.299.076.62.62 0 0 0-.21.205.978.978 0 0 0-.124.305c-.027.115-.04.239-.04.372v.061Zm4.914.677a.236.236 0 0 0-.036-.129.292.292 0 0 0-.12-.103 1.006 1.006 0 0 0-.228-.09 4.09 4.09 0 0 0-.364-.082 3.7 3.7 0 0 1-.51-.138 1.68 1.68 0 0 1-.392-.202.952.952 0 0 1-.258-.276.694.694 0 0 1-.09-.357c0-.13.03-.256.093-.375a.951.951 0 0 1 .27-.314c.117-.09.26-.16.427-.213a1.89 1.89 0 0 1 .569-.08c.22 0 .419.027.595.08.175.05.324.122.445.213a.875.875 0 0 1 .378.73h-.815a.383.383 0 0 0-.15-.308c-.099-.084-.25-.126-.453-.126-.19 0-.333.035-.43.103-.097.068-.144.152-.144.252 0 .047.01.09.029.132.02.039.054.075.102.108.051.031.12.06.206.088.085.025.195.048.328.067.191.032.369.072.533.12a1.7 1.7 0 0 1 .425.19.85.85 0 0 1 .278.282.73.73 0 0 1 .102.393.77.77 0 0 1-.102.39.923.923 0 0 1-.287.304 1.46 1.46 0 0 1-.448.202 2.29 2.29 0 0 1-.59.07c-.237 0-.449-.03-.632-.093a1.49 1.49 0 0 1-.457-.243 1.078 1.078 0 0 1-.281-.343.88.88 0 0 1-.094-.387h.776a.454.454 0 0 0 .229.372.754.754 0 0 0 .22.082c.084.018.17.027.257.027.201 0 .355-.033.46-.097.106-.064.159-.148.159-.25ZM72.5 6.734h.823l.003 2.956a1.365 1.365 0 0 1-.117.557c-.074.166-.177.31-.308.43a1.39 1.39 0 0 1-.462.282 1.61 1.61 0 0 1-.569.1 1.97 1.97 0 0 1-.586-.082 1.284 1.284 0 0 1-.454-.244 1.124 1.124 0 0 1-.293-.41 1.491 1.491 0 0 1-.108-.577h.826c.002.229.053.395.152.498.1.102.254.152.463.152.094 0 .18-.017.258-.052a.607.607 0 0 0 .325-.372.832.832 0 0 0 .047-.282V6.734Zm3.642 3.821a1.218 1.218 0 0 1-.39.372.948.948 0 0 1-.495.135c-.164 0-.315-.026-.451-.077a.871.871 0 0 1-.352-.24 1.176 1.176 0 0 1-.228-.422 2.123 2.123 0 0 1-.08-.618V7.83h.815v1.88c0 .13.009.238.026.326.02.088.05.16.091.214.041.053.095.09.161.114a.736.736 0 0 0 .243.035c.162 0 .294-.03.396-.09a.608.608 0 0 0 .231-.255V7.83h.818V11h-.739l-.046-.445ZM78.23 7.83l.024.384a.788.788 0 0 1 .249-.322.634.634 0 0 1 .39-.12c.255 0 .422.112.5.336a.7.7 0 0 1 .238-.246.654.654 0 0 1 .351-.09.67.67 0 0 1 .267.052.532.532 0 0 1 .217.17.79.79 0 0 1 .143.299c.035.121.053.27.053.445V11h-.741V8.735a.49.49 0 0 0-.02-.15.212.212 0 0 0-.05-.09.157.157 0 0 0-.077-.047.25.25 0 0 0-.085-.014.252.252 0 0 0-.234.146V11h-.718V8.732a.56.56 0 0 0-.017-.149.212.212 0 0 0-.05-.09.148.148 0 0 0-.07-.045.26.26 0 0 0-.088-.014.219.219 0 0 0-.153.052.361.361 0 0 0-.087.141V11h-.742V7.83h.7Zm5.945 1.614c0 .23-.028.445-.082.642a1.533 1.533 0 0 1-.237.513 1.125 1.125 0 0 1-.387.336 1.112 1.112 0 0 1-.53.124c-.17 0-.32-.03-.449-.088a1.02 1.02 0 0 1-.337-.246v1.494h-.814V7.83h.753l.03.31c.097-.117.212-.207.345-.272.133-.064.288-.097.466-.097.2 0 .378.04.533.118.154.076.284.185.39.328.105.14.184.31.237.51.054.197.082.416.082.656v.061Zm-.815-.061c0-.133-.012-.257-.038-.372a.894.894 0 0 0-.114-.302.565.565 0 0 0-.2-.202.553.553 0 0 0-.292-.073.66.66 0 0 0-.352.085.56.56 0 0 0-.21.234v1.324c.05.1.12.18.21.24a.653.653 0 0 0 .358.088.536.536 0 0 0 .492-.284c.05-.088.088-.19.111-.305.024-.117.035-.24.035-.372v-.061ZM58.889 17h-.815v-1.849h-1.207V17h-.817v-4.266h.817v1.75h1.207v-1.75h.815V17Zm1.034-3.17h1.725v2.508h.859V17h-2.584v-.662h.902v-1.843h-.902v-.665Zm.844-.811c0-.063.01-.12.032-.173a.431.431 0 0 1 .243-.229.557.557 0 0 1 .193-.032.47.47 0 0 1 .343.123c.086.08.129.184.129.31a.414.414 0 0 1-.129.314.476.476 0 0 1-.343.12.557.557 0 0 1-.193-.032.458.458 0 0 1-.147-.088.428.428 0 0 1-.096-.138.476.476 0 0 1-.032-.175Zm2.46 2.373c0-.24.03-.46.088-.66a1.57 1.57 0 0 1 .258-.512 1.16 1.16 0 0 1 .404-.331c.159-.079.337-.117.537-.117.185 0 .344.03.477.093a.961.961 0 0 1 .34.267l.032-.302h.742v3.068c0 .214-.038.406-.112.574-.072.168-.175.31-.307.424a1.3 1.3 0 0 1-.475.261 1.936 1.936 0 0 1-.917.062 1.81 1.81 0 0 1-.325-.091 1.5 1.5 0 0 1-.305-.158 1.005 1.005 0 0 1-.246-.226l.366-.495c.104.117.22.206.352.267.13.062.272.093.425.093.228 0 .406-.061.533-.184.129-.121.193-.294.193-.519v-.181a1.02 1.02 0 0 1-.337.246 1.046 1.046 0 0 1-.442.088c-.197 0-.375-.04-.533-.12a1.234 1.234 0 0 1-.402-.337 1.572 1.572 0 0 1-.258-.507 2.244 2.244 0 0 1-.087-.642v-.061Zm.818.061c0 .133.013.257.038.372a.981.981 0 0 0 .123.299.63.63 0 0 0 .208.2.583.583 0 0 0 .299.072.68.68 0 0 0 .352-.082.597.597 0 0 0 .222-.228v-1.342a.571.571 0 0 0-.223-.228.666.666 0 0 0-.345-.082.567.567 0 0 0-.3.076.621.621 0 0 0-.21.205.978.978 0 0 0-.123.305 1.625 1.625 0 0 0-.041.372v.061Zm3.683-1.186c.105-.155.233-.276.383-.364.153-.088.323-.132.51-.132.166 0 .319.026.457.077a.89.89 0 0 1 .358.231c.1.106.176.241.231.407.057.164.085.363.085.595V17h-.814v-1.925a.873.873 0 0 0-.044-.293.483.483 0 0 0-.12-.199.476.476 0 0 0-.191-.111.776.776 0 0 0-.252-.038.817.817 0 0 0-.357.073.662.662 0 0 0-.246.205V17h-.815v-4.5h.815v1.767Zm4.327 2.792c-.245 0-.466-.04-.665-.12a1.58 1.58 0 0 1-.513-.326 1.463 1.463 0 0 1-.445-1.087v-.117c0-.242.038-.463.114-.662a1.51 1.51 0 0 1 .32-.518 1.42 1.42 0 0 1 .486-.337c.187-.08.391-.12.612-.12.228 0 .431.038.61.114.179.074.33.18.453.316.125.137.22.302.284.495.065.192.097.404.097.636v.346h-2.15a.92.92 0 0 0 .094.296.84.84 0 0 0 .439.377c.096.036.2.053.314.053a1.235 1.235 0 0 0 .466-.09c.072-.032.139-.07.201-.115a.789.789 0 0 0 .164-.158l.408.44a1.338 1.338 0 0 1-.487.398 1.876 1.876 0 0 1-.802.179Zm-.097-2.628a.623.623 0 0 0-.454.187.82.82 0 0 0-.144.217 1.217 1.217 0 0 0-.088.281h1.336v-.064a.77.77 0 0 0-.05-.243.556.556 0 0 0-.328-.329.693.693 0 0 0-.272-.05Zm4.439-.66c.122 0 .236.01.34.027.105.015.19.033.254.053l-.12.811a2.614 2.614 0 0 0-.331-.056 2.636 2.636 0 0 0-.32-.02c-.228 0-.411.044-.55.132a.802.802 0 0 0-.308.378V17h-.814v-3.17h.759l.038.519c.129-.18.283-.32.463-.422.18-.104.376-.155.588-.155ZM72.91 32.732h-1.517l3.193-9.263h1.517l-3.193 9.263Z"/>
</svg>