<svg xmlns="http://www.w3.org/2000/svg" width="90" height="90" fill="none" viewBox="0 0 90 90">
  <path fill="#12221F" d="M0 0h90v90H0z"/>
  <path fill="#AFF2E2" d="m83.123 33.069 1.88-.11-.042-.751-1.88.109.041.752Zm-1.155-.186a.743.743 0 0 0-.205-.49c-.127-.131-.31-.19-.55-.176-.237.014-.412.093-.526.239a.711.711 0 0 0-.16.51.689.689 0 0 0 .215.48c.132.124.316.18.55.166.236-.014.412-.09.526-.229a.72.72 0 0 0 .15-.5Zm-3.914.48 1.757-.102-.042-.752-1.757.102.042.752Zm-3.931-22.294 1.88-.11-.042-.751-1.88.109.041.752Zm-1.155-.186a.743.743 0 0 0-.205-.49c-.127-.131-.31-.19-.55-.176-.237.013-.412.093-.526.239a.711.711 0 0 0-.16.51.689.689 0 0 0 .215.48c.132.124.316.18.55.166.236-.014.412-.09.526-.229a.72.72 0 0 0 .15-.5Zm-3.914.48 1.757-.102-.042-.752-1.757.102.042.752ZM10.123 33.069l1.88-.11-.042-.751-1.88.109.042.752Zm-1.155-.186a.743.743 0 0 0-.205-.49c-.127-.131-.31-.19-.55-.176-.237.014-.412.093-.526.239a.711.711 0 0 0-.16.51.689.689 0 0 0 .215.48c.133.124.316.18.55.166.236-.014.412-.09.526-.229a.72.72 0 0 0 .15-.5Zm-3.914.48 1.757-.102-.042-.752-1.757.102.042.752ZM33.886 7.96H32l.002-.752h1.885l-.002.753Zm1.144-.252c0-.195.06-.361.179-.5s.299-.208.54-.208c.237 0 .416.07.538.208a.707.707 0 0 1 .187.5.687.687 0 0 1-.19.49c-.126.133-.305.199-.54.199-.237 0-.416-.066-.538-.198a.716.716 0 0 1-.177-.49Zm3.936.252h-1.761l.002-.752h1.76l-.001.753Zm-19.904 8.006 1.846.38.15-.738-1.846-.38-.15.738Zm-1.069-.478a.746.746 0 0 0-.074-.526c-.09-.16-.252-.264-.487-.313-.233-.047-.423-.016-.57.096a.707.707 0 0 0-.283.452.687.687 0 0 0 .086.518c.097.155.26.256.489.303.233.048.422.02.567-.085a.716.716 0 0 0 .272-.445Zm-3.906-.546 1.724.355.15-.738-1.725-.355-.15.738Z"/>
</svg>
