<svg xmlns="http://www.w3.org/2000/svg" width="90" height="90" fill="none" viewBox="0 0 90 90">
  <g clip-path="url(#a)">
    <path fill="#AFF2E2" fill-opacity=".1" d="M14.01 13.531h-3.258V6.137H5.924v7.394h-3.27V-3.53h3.27v6.996h4.828V-3.53h3.258v17.06Zm3.879-17.062h9.867v2.66h-3.328v11.754h3.328v2.648h-9.867v-2.648h3.246V-.871h-3.246v-2.66ZM43.307 11.54c-.211.257-.5.519-.867.784a6.883 6.883 0 0 1-1.313.727 9.66 9.66 0 0 1-3.703.715c-.969 0-1.844-.172-2.625-.516a5.542 5.542 0 0 1-2.004-1.488c-.555-.649-.985-1.442-1.29-2.38-.296-.944-.444-2.015-.444-3.21v-2.32c0-1.196.156-2.262.468-3.2.32-.945.758-1.746 1.313-2.402a5.705 5.705 0 0 1 1.968-1.5 5.887 5.887 0 0 1 2.462-.516c.96 0 1.796.121 2.507.364.719.242 1.324.593 1.817 1.054a4.666 4.666 0 0 1 1.148 1.664c.281.657.465 1.395.55 2.215h-3.21c-.11-.875-.375-1.531-.797-1.968-.414-.446-1.059-.668-1.934-.668-.421 0-.812.109-1.171.328-.36.21-.672.523-.938.937-.266.414-.476.93-.633 1.547-.156.61-.234 1.316-.234 2.121v2.344c.008 1.594.273 2.816.797 3.668.523.844 1.324 1.27 2.402 1.277a4.922 4.922 0 0 0 1.465-.223c.219-.07.41-.148.574-.234.172-.094.301-.191.387-.293l.012-3.094h-2.825v-2.46h6.106l.012 6.726Zm13.945 1.991h-3.258V6.137h-4.828v7.394h-3.27V-3.53h3.27v6.996h4.828V-3.53h3.258v17.06Zm13.652-7.476h-7.007v4.816h8.19v2.66H60.593V-3.53h11.46v2.683h-8.156v4.301h7.008v2.602Zm9.703 1.101h-2.496v6.375h-3.293V-3.53h5.72c.944 0 1.8.113 2.566.34.765.218 1.418.543 1.957.972.546.43.964.965 1.253 1.606.297.64.446 1.383.446 2.226 0 .61-.075 1.16-.223 1.653a4.415 4.415 0 0 1-1.594 2.32 6.286 6.286 0 0 1-1.265.75l3.668 7.043v.152h-3.528l-3.21-6.375Zm-2.496-2.672h2.438c.93 0 1.644-.234 2.144-.703.508-.476.762-1.125.762-1.945 0-.852-.246-1.512-.738-1.98-.492-.477-1.219-.715-2.18-.715h-2.426v5.343ZM14.01 33.531h-3.258v-7.394H5.924v7.394h-3.27V16.47h3.27v6.996h4.828V16.47h3.258v17.06Zm3.879-17.062h9.867v2.66h-3.328v11.754h3.328v2.648h-9.867v-2.648h3.246V19.129h-3.246v-2.66ZM43.307 31.54c-.211.257-.5.519-.867.784a6.883 6.883 0 0 1-1.313.727 9.66 9.66 0 0 1-3.703.715c-.969 0-1.844-.172-2.625-.516a5.542 5.542 0 0 1-2.004-1.488c-.555-.649-.985-1.442-1.29-2.38-.296-.945-.444-2.015-.444-3.21v-2.32c0-1.196.156-2.262.468-3.2.32-.945.758-1.746 1.313-2.402a5.706 5.706 0 0 1 1.968-1.5 5.887 5.887 0 0 1 2.462-.516c.96 0 1.796.121 2.507.364.719.242 1.324.593 1.817 1.054a4.668 4.668 0 0 1 1.148 1.664c.281.657.465 1.395.55 2.215h-3.21c-.11-.875-.375-1.531-.797-1.968-.414-.446-1.059-.668-1.934-.668-.421 0-.812.109-1.171.328-.36.21-.672.523-.938.937-.266.414-.476.93-.633 1.547-.156.61-.234 1.316-.234 2.121v2.344c.008 1.594.273 2.816.797 3.668.523.844 1.324 1.27 2.402 1.277a4.922 4.922 0 0 0 1.465-.223c.219-.07.41-.148.574-.234.172-.094.301-.191.387-.293l.012-3.094h-2.825v-2.46h6.106l.012 6.726Zm13.945 1.991h-3.258v-7.394h-4.828v7.394h-3.27V16.47h3.27v6.996h4.828V16.47h3.258v17.06Zm13.652-7.476h-7.007v4.816h8.19v2.66H60.593V16.47h11.46v2.683h-8.156v4.301h7.008v2.602Zm9.703 1.101h-2.496v6.375h-3.293V16.47h5.72c.944 0 1.8.113 2.566.34.765.218 1.418.543 1.957.972.546.43.964.965 1.253 1.606.297.64.446 1.383.446 2.226 0 .61-.075 1.16-.223 1.653a4.415 4.415 0 0 1-1.594 2.32 6.286 6.286 0 0 1-1.265.75l3.668 7.043v.152h-3.528l-3.21-6.375Zm-2.496-2.672h2.438c.93 0 1.644-.234 2.144-.703.508-.476.762-1.125.762-1.945 0-.852-.246-1.512-.738-1.98-.492-.477-1.219-.715-2.18-.715h-2.426v5.343ZM14.01 53.531h-3.258v-7.394H5.924v7.394h-3.27V36.47h3.27v6.996h4.828V36.47h3.258v17.06Zm3.879-17.062h9.867v2.66h-3.328v11.754h3.328v2.648h-9.867v-2.648h3.246V39.129h-3.246v-2.66ZM43.307 51.54c-.211.257-.5.519-.867.784a6.883 6.883 0 0 1-1.313.727 9.66 9.66 0 0 1-3.703.715c-.969 0-1.844-.172-2.625-.516a5.542 5.542 0 0 1-2.004-1.488c-.555-.649-.985-1.442-1.29-2.38-.296-.944-.444-2.015-.444-3.21v-2.32c0-1.196.156-2.262.468-3.2.32-.945.758-1.746 1.313-2.402a5.706 5.706 0 0 1 1.968-1.5 5.887 5.887 0 0 1 2.462-.516c.96 0 1.796.121 2.507.364.719.242 1.324.593 1.817 1.054a4.668 4.668 0 0 1 1.148 1.664c.281.657.465 1.395.55 2.215h-3.21c-.11-.875-.375-1.531-.797-1.968-.414-.446-1.059-.669-1.934-.669-.421 0-.812.11-1.171.329-.36.21-.672.523-.938.937-.266.414-.476.93-.633 1.547-.156.61-.234 1.316-.234 2.121v2.344c.008 1.594.273 2.816.797 3.668.523.844 1.324 1.27 2.402 1.277a4.922 4.922 0 0 0 1.465-.222c.219-.07.41-.149.574-.235.172-.094.301-.191.387-.293l.012-3.094h-2.825v-2.46h6.106l.012 6.726Zm13.945 1.991h-3.258v-7.394h-4.828v7.394h-3.27V36.47h3.27v6.996h4.828V36.47h3.258v17.06Zm13.652-7.476h-7.007v4.816h8.19v2.66H60.593V36.47h11.46v2.683h-8.156v4.301h7.008v2.602Zm9.703 1.101h-2.496v6.375h-3.293V36.47h5.72c.944 0 1.8.113 2.566.34.765.218 1.418.543 1.957.972.546.43.964.965 1.253 1.606.297.64.446 1.383.446 2.226 0 .61-.075 1.16-.223 1.653a4.415 4.415 0 0 1-1.594 2.32 6.286 6.286 0 0 1-1.265.75l3.668 7.043v.152h-3.528l-3.21-6.375Zm-2.496-2.672h2.438c.93 0 1.644-.234 2.144-.703.508-.476.762-1.125.762-1.945 0-.852-.246-1.512-.738-1.98-.492-.477-1.219-.715-2.18-.715h-2.426v5.343ZM14.01 73.531h-3.258v-7.394H5.924v7.394h-3.27V56.47h3.27v6.996h4.828V56.47h3.258v17.06Zm3.879-17.062h9.867v2.66h-3.328v11.754h3.328v2.648h-9.867v-2.648h3.246V59.129h-3.246v-2.66ZM43.307 71.54c-.211.257-.5.519-.867.784a6.883 6.883 0 0 1-1.313.727 9.66 9.66 0 0 1-3.703.715c-.969 0-1.844-.172-2.625-.516a5.542 5.542 0 0 1-2.004-1.488c-.555-.649-.985-1.442-1.29-2.38-.296-.945-.444-2.015-.444-3.21v-2.32c0-1.196.156-2.262.468-3.2.32-.945.758-1.746 1.313-2.402a5.706 5.706 0 0 1 1.968-1.5 5.887 5.887 0 0 1 2.462-.516c.96 0 1.796.121 2.507.364.719.242 1.324.593 1.817 1.054a4.668 4.668 0 0 1 1.148 1.664c.281.657.465 1.395.55 2.215h-3.21c-.11-.875-.375-1.531-.797-1.968-.414-.446-1.059-.669-1.934-.669-.421 0-.812.11-1.171.329-.36.21-.672.523-.938.937-.266.414-.476.93-.633 1.547-.156.61-.234 1.316-.234 2.121v2.344c.008 1.594.273 2.816.797 3.668.523.844 1.324 1.27 2.402 1.277a4.922 4.922 0 0 0 1.465-.223c.219-.07.41-.148.574-.234.172-.094.301-.191.387-.293l.012-3.094h-2.825v-2.46h6.106l.012 6.726Zm13.945 1.991h-3.258v-7.394h-4.828v7.394h-3.27V56.47h3.27v6.996h4.828V56.47h3.258v17.06Zm13.652-7.476h-7.007v4.816h8.19v2.66H60.593V56.47h11.46v2.683h-8.156v4.301h7.008v2.602Zm9.703 1.101h-2.496v6.375h-3.293V56.47h5.72c.944 0 1.8.113 2.566.34.765.218 1.418.543 1.957.972.546.43.964.965 1.253 1.606.297.64.446 1.383.446 2.226 0 .61-.075 1.16-.223 1.653a4.415 4.415 0 0 1-1.594 2.32 6.286 6.286 0 0 1-1.265.75l3.668 7.043v.152h-3.528l-3.21-6.375Zm-2.496-2.672h2.438c.93 0 1.644-.234 2.144-.703.508-.476.762-1.125.762-1.945 0-.852-.246-1.512-.738-1.98-.492-.477-1.219-.715-2.18-.715h-2.426v5.343ZM14.01 93.531h-3.258v-7.394H5.924v7.394h-3.27V76.47h3.27v6.996h4.828V76.47h3.258v17.06Zm3.879-17.062h9.867v2.66h-3.328v11.754h3.328v2.648h-9.867v-2.648h3.246V79.129h-3.246v-2.66ZM43.307 91.54c-.211.257-.5.519-.867.784a6.883 6.883 0 0 1-1.313.727 9.66 9.66 0 0 1-3.703.715c-.969 0-1.844-.172-2.625-.516a5.542 5.542 0 0 1-2.004-1.488c-.555-.649-.985-1.442-1.29-2.38-.296-.945-.444-2.015-.444-3.21v-2.32c0-1.196.156-2.262.468-3.2.32-.945.758-1.746 1.313-2.402a5.706 5.706 0 0 1 1.968-1.5 5.887 5.887 0 0 1 2.462-.516c.96 0 1.796.122 2.507.364.719.242 1.324.593 1.817 1.054a4.668 4.668 0 0 1 1.148 1.664c.281.657.465 1.395.55 2.215h-3.21c-.11-.875-.375-1.531-.797-1.969-.414-.445-1.059-.668-1.934-.668-.421 0-.812.11-1.171.329-.36.21-.672.523-.938.937-.266.414-.476.93-.633 1.547-.156.61-.234 1.316-.234 2.121v2.344c.008 1.594.273 2.816.797 3.668.523.844 1.324 1.27 2.402 1.277a4.922 4.922 0 0 0 1.465-.223c.219-.07.41-.148.574-.234.172-.094.301-.191.387-.293l.012-3.094h-2.825v-2.46h6.106l.012 6.726Zm13.945 1.991h-3.258v-7.394h-4.828v7.394h-3.27V76.47h3.27v6.996h4.828V76.47h3.258v17.06Zm13.652-7.476h-7.007v4.816h8.19v2.66H60.593V76.47h11.46v2.683h-8.156v4.301h7.008v2.602Zm9.703 1.101h-2.496v6.375h-3.293V76.47h5.72c.944 0 1.8.113 2.566.34.765.218 1.418.543 1.957.972.546.43.964.965 1.253 1.606.297.64.446 1.382.446 2.226 0 .61-.075 1.16-.223 1.653a4.415 4.415 0 0 1-1.594 2.32 6.286 6.286 0 0 1-1.265.75l3.668 7.043v.152h-3.528l-3.21-6.375Zm-2.496-2.672h2.438c.93 0 1.644-.234 2.144-.703.508-.476.762-1.125.762-1.945 0-.852-.246-1.512-.738-1.98-.492-.477-1.219-.715-2.18-.715h-2.426v5.343Z"/>
  </g>
  <defs>
    <clipPath id="a">
      <path fill="#fff" d="M0 0h90v90H0z"/>
    </clipPath>
  </defs>
</svg>
